<svg width="100%" height="100%" viewBox="0 0 216 182" fill="none" xmlns="http://www.w3.org/2000/svg">
<path d="M206 0H10C4.47715 0 0 4.47715 0 10V172C0 177.523 4.47715 182 10 182H206C211.523 182 216 177.523 216 172V10C216 4.47715 211.523 0 206 0Z" fill="#341717"/>
<path d="M166 29H59C52.9249 29 48 33.9249 48 40V143C48 149.075 52.9249 154 59 154H166C172.075 154 177 149.075 177 143V40C177 33.9249 172.075 29 166 29Z" fill="#3B1C1C"/>
<path d="M108.065 104H100.815L111.862 72H120.581L131.612 104H124.362L116.346 79.3125H116.096L108.065 104ZM107.612 91.4219H124.737V96.7031H107.612V91.4219Z" fill="#764949"/>
<path d="M141.567 106.881C141.728 106.909 141.894 106.885 142.04 106.812C142.186 106.74 142.305 106.623 142.38 106.478C142.456 106.333 142.483 106.168 142.458 106.007C142.434 105.846 142.358 105.697 142.243 105.581L140.943 104.269L141.79 102.608C141.851 102.491 141.88 102.361 141.875 102.23C141.87 102.099 141.832 101.972 141.763 101.86C141.661 101.696 141.501 101.576 141.315 101.524C141.129 101.471 140.93 101.489 140.756 101.574L139.079 102.418L137.779 101.118C137.702 101.045 137.611 100.989 137.512 100.952C137.412 100.916 137.307 100.899 137.201 100.904C137.095 100.909 136.991 100.935 136.895 100.98C136.8 101.026 136.714 101.09 136.643 101.169C136.571 101.254 136.519 101.354 136.49 101.462C136.462 101.57 136.457 101.683 136.477 101.793L136.777 103.578L135.171 104.385C135.026 104.458 134.907 104.575 134.833 104.72C134.758 104.865 134.731 105.029 134.756 105.19C134.781 105.351 134.856 105.5 134.971 105.615C135.086 105.73 135.235 105.806 135.395 105.832L137.235 106.132L137.519 107.969C137.544 108.13 137.619 108.279 137.734 108.395C137.849 108.511 137.998 108.587 138.159 108.612C138.32 108.638 138.485 108.612 138.63 108.537C138.775 108.463 138.893 108.345 138.966 108.199L139.801 106.571L141.567 106.881ZM139.112 106.24L138.288 107.868H138.283L137.983 106.019C137.959 105.858 137.884 105.709 137.769 105.594C137.654 105.479 137.506 105.403 137.345 105.377L135.512 105.058L137.118 104.251C137.266 104.177 137.387 104.058 137.461 103.911C137.535 103.763 137.56 103.596 137.531 103.433L137.248 101.651L138.548 102.951C138.663 103.066 138.812 103.141 138.972 103.166C139.132 103.192 139.297 103.166 139.441 103.092L141.121 102.264L140.274 103.925C140.2 104.07 140.174 104.234 140.2 104.394C140.225 104.555 140.3 104.703 140.415 104.818L141.7 106.137L139.929 105.83C139.767 105.801 139.6 105.826 139.453 105.9C139.306 105.974 139.186 106.093 139.112 106.24Z" fill="#764949" stroke="#764949" stroke-width="0.2"/>
<path d="M136.362 110.801L136.9 109.746C136.951 109.648 136.976 109.539 136.971 109.429C136.967 109.319 136.935 109.212 136.877 109.119C136.791 108.982 136.658 108.882 136.502 108.838C136.347 108.794 136.181 108.809 136.035 108.88L134.979 109.417L134.156 108.594C134.092 108.533 134.016 108.485 133.933 108.454C133.85 108.423 133.761 108.409 133.673 108.413C133.584 108.417 133.497 108.438 133.417 108.477C133.337 108.515 133.265 108.569 133.206 108.636C133.146 108.707 133.103 108.791 133.078 108.882C133.054 108.972 133.05 109.067 133.066 109.159L133.259 110.277L132.243 110.788C132.122 110.849 132.022 110.947 131.96 111.068C131.898 111.189 131.875 111.326 131.896 111.461C131.917 111.596 131.98 111.72 132.076 111.816C132.172 111.913 132.296 111.976 132.43 111.998L133.591 112.184L133.772 113.351C133.794 113.485 133.857 113.609 133.953 113.706C134.049 113.802 134.173 113.865 134.308 113.887C134.442 113.908 134.58 113.886 134.701 113.824C134.822 113.763 134.921 113.664 134.982 113.543L135.502 112.516L136.62 112.71C136.755 112.733 136.893 112.712 137.016 112.652C137.138 112.591 137.238 112.493 137.301 112.372C137.363 112.25 137.386 112.112 137.365 111.977C137.345 111.842 137.282 111.718 137.185 111.621L136.362 110.801ZM135.55 111.76C135.415 111.736 135.274 111.756 135.151 111.818C135.028 111.88 134.927 111.98 134.865 112.103L134.465 112.892L134.325 111.992C134.305 111.857 134.242 111.733 134.146 111.636C134.05 111.539 133.926 111.476 133.791 111.455L132.891 111.311L133.671 110.919C133.795 110.857 133.896 110.758 133.958 110.634C134.02 110.511 134.041 110.371 134.016 110.235L133.869 109.381L134.5 110.012C134.597 110.107 134.721 110.169 134.855 110.19C134.989 110.212 135.126 110.191 135.247 110.131L136.067 109.713L135.649 110.534C135.587 110.655 135.566 110.792 135.587 110.927C135.608 111.061 135.672 111.185 135.768 111.281L136.398 111.911L135.55 111.76Z" fill="#764949" stroke="#764949" stroke-width="0.2"/>
<path d="M144.307 111.363L144.727 110.539C144.774 110.448 144.797 110.347 144.793 110.246C144.789 110.144 144.759 110.045 144.705 109.958C144.626 109.831 144.502 109.739 144.358 109.698C144.214 109.657 144.06 109.671 143.925 109.737L143.101 110.157L142.459 109.515C142.4 109.458 142.329 109.414 142.252 109.386C142.175 109.357 142.093 109.344 142.011 109.348C141.929 109.351 141.848 109.371 141.774 109.407C141.7 109.442 141.634 109.492 141.579 109.554C141.524 109.62 141.484 109.698 141.461 109.782C141.439 109.865 141.435 109.953 141.45 110.038L141.6 110.91L140.81 111.31C140.7 111.368 140.611 111.46 140.555 111.571C140.499 111.683 140.479 111.809 140.498 111.932C140.517 112.056 140.574 112.17 140.661 112.26C140.749 112.349 140.862 112.409 140.984 112.431L141.89 112.576L142.031 113.487C142.053 113.61 142.112 113.723 142.202 113.811C142.291 113.899 142.405 113.957 142.528 113.976C142.652 113.996 142.778 113.976 142.89 113.921C143.002 113.865 143.094 113.775 143.152 113.665L143.552 112.865L144.421 113.016C144.555 113.041 144.693 113.019 144.812 112.953C144.932 112.887 145.024 112.782 145.074 112.656C145.12 112.547 145.131 112.427 145.108 112.312C145.085 112.196 145.028 112.09 144.944 112.007L144.307 111.363ZM143.568 112.098L143.468 112.089C143.358 112.089 143.25 112.119 143.156 112.177C143.062 112.235 142.986 112.317 142.936 112.416L142.702 112.878L142.619 112.343C142.601 112.218 142.543 112.102 142.454 112.012C142.365 111.922 142.249 111.863 142.124 111.843L141.591 111.758L142.041 111.532C142.156 111.475 142.249 111.382 142.306 111.268C142.364 111.154 142.383 111.024 142.36 110.898L142.275 110.405L142.644 110.774C142.734 110.862 142.849 110.92 142.973 110.94C143.097 110.959 143.224 110.94 143.336 110.883L143.826 110.633L143.576 111.123C143.519 111.235 143.498 111.363 143.518 111.487C143.537 111.612 143.596 111.727 143.685 111.816L144.052 112.183L143.568 112.098Z" fill="#764949" stroke="#764949" stroke-width="0.2"/>
<path d="M136.312 100.78C136.383 100.709 136.423 100.613 136.423 100.513C136.423 100.413 136.383 100.317 136.312 100.246L135.178 99.1118C135.106 99.0501 135.013 99.0181 134.918 99.0221C134.822 99.0261 134.732 99.0658 134.665 99.1334C134.598 99.201 134.559 99.2915 134.556 99.3867C134.552 99.4819 134.585 99.5748 134.647 99.6468L135.781 100.781C135.816 100.816 135.858 100.844 135.904 100.863C135.95 100.882 135.999 100.892 136.048 100.892C136.098 100.892 136.147 100.882 136.193 100.863C136.239 100.844 136.28 100.816 136.315 100.781L136.312 100.78Z" fill="#764949" stroke="#764949" stroke-width="0.2"/>
<path d="M140.474 109.693L140.096 109.315C140.062 109.277 140.02 109.247 139.974 109.225C139.927 109.204 139.877 109.193 139.826 109.192C139.775 109.19 139.724 109.2 139.676 109.219C139.629 109.238 139.586 109.266 139.55 109.302C139.514 109.338 139.485 109.381 139.466 109.429C139.447 109.476 139.438 109.527 139.439 109.578C139.44 109.629 139.452 109.68 139.473 109.726C139.494 109.773 139.525 109.814 139.562 109.849L139.94 110.227C140.012 110.292 140.107 110.328 140.204 110.325C140.301 110.323 140.394 110.283 140.462 110.215C140.531 110.146 140.571 110.053 140.573 109.956C140.575 109.859 140.54 109.765 140.474 109.693Z" fill="#764949" stroke="#764949" stroke-width="0.2"/>
<path d="M135.667 102.78C135.742 102.78 135.815 102.758 135.877 102.716C135.939 102.674 135.988 102.615 136.016 102.546C136.045 102.477 136.052 102.402 136.038 102.328C136.023 102.255 135.987 102.188 135.934 102.135L132.911 99.1119C132.84 99.0405 132.744 99.0003 132.643 99C132.543 98.9997 132.446 99.0394 132.375 99.1104C132.304 99.1813 132.263 99.2777 132.263 99.3783C132.263 99.4789 132.302 99.5755 132.373 99.6469L135.396 102.67C135.432 102.705 135.474 102.733 135.521 102.752C135.567 102.771 135.617 102.781 135.667 102.78Z" fill="#764949" stroke="#764949" stroke-width="0.2"/>
<path d="M130.644 108.559C130.573 108.493 130.478 108.458 130.381 108.46C130.284 108.463 130.191 108.502 130.123 108.571C130.054 108.64 130.014 108.732 130.012 108.829C130.01 108.927 130.045 109.021 130.11 109.093L131.244 110.227C131.279 110.265 131.321 110.295 131.367 110.316C131.414 110.337 131.464 110.349 131.515 110.35C131.566 110.351 131.617 110.342 131.664 110.323C131.712 110.304 131.755 110.276 131.791 110.239C131.827 110.203 131.856 110.16 131.875 110.113C131.894 110.065 131.903 110.015 131.902 109.963C131.901 109.912 131.889 109.862 131.868 109.816C131.847 109.769 131.816 109.727 131.778 109.693L130.644 108.559Z" fill="#764949" stroke="#764949" stroke-width="0.2"/>
<path d="M130.11 106.292C130.04 106.363 130 106.459 130 106.559C130 106.659 130.04 106.755 130.11 106.826L131.999 108.716C132.034 108.754 132.076 108.784 132.122 108.805C132.169 108.826 132.219 108.838 132.27 108.839C132.321 108.84 132.372 108.831 132.419 108.812C132.467 108.793 132.51 108.765 132.546 108.728C132.582 108.692 132.611 108.649 132.63 108.602C132.649 108.554 132.658 108.504 132.657 108.452C132.656 108.401 132.644 108.351 132.623 108.304C132.602 108.258 132.571 108.216 132.533 108.182L130.643 106.292C130.573 106.221 130.477 106.182 130.377 106.182C130.277 106.182 130.181 106.221 130.11 106.292Z" fill="#764949" stroke="#764949" stroke-width="0.2"/>
</svg>
