<!-- <svg xmlns="http://www.w3.org/2000/svg" width="100%" height="100%" viewBox="0 0 171 144" fill="none">
  <g clip-path="url(#clip0_2324_302)">
    <path d="M-0.000244141 10C-0.000244141 4.47715 4.47691 0 9.99976 0H161C166.523 0 171 4.47715 171 10V134C171 139.523 166.523 144 161 144H9.99976C4.47691 144 -0.000244141 139.523 -0.000244141 134V10Z" fill="#341717"/>
    <path d="M104.157 91.5867C101.391 91.5867 98.926 91.1118 96.7609 90.162C94.6099 89.2122 92.8988 87.8923 91.6278 86.2022C90.3707 84.4981 89.6862 82.5216 89.5745 80.2728H94.8543C94.9661 81.6556 95.441 82.8499 96.2791 83.8556C97.1171 84.8473 98.2136 85.6155 99.5685 86.1603C100.923 86.705 102.425 86.9774 104.073 86.9774C105.917 86.9774 107.551 86.6561 108.976 86.0136C110.401 85.3711 111.518 84.4771 112.328 83.3318C113.138 82.1864 113.543 80.8595 113.543 79.351C113.543 77.7726 113.152 76.3828 112.37 75.1816C111.588 73.9664 110.442 73.0166 108.934 72.3321C107.425 71.6477 105.582 71.3055 103.403 71.3055H99.9666V66.6961H103.403C105.107 66.6961 106.601 66.3888 107.886 65.7742C109.185 65.1597 110.198 64.2937 110.924 63.1762C111.665 62.0588 112.035 60.7458 112.035 59.2373C112.035 57.7847 111.713 56.5206 111.071 55.4451C110.428 54.3695 109.521 53.5315 108.347 52.9309C107.188 52.3302 105.819 52.0299 104.241 52.0299C102.76 52.0299 101.363 52.3023 100.05 52.847C98.7514 53.3778 97.6898 54.153 96.8657 55.1727C96.0416 56.1784 95.5946 57.3936 95.5248 58.8183H90.4964C90.5802 56.5695 91.2576 54.6 92.5287 52.9099C93.7998 51.2058 95.4619 49.8789 97.5152 48.9291C99.5824 47.9793 101.852 47.5044 104.325 47.5044C106.978 47.5044 109.255 48.0421 111.155 49.1176C113.054 50.1792 114.514 51.583 115.534 53.3289C116.553 55.0749 117.063 56.9606 117.063 58.9859C117.063 61.4023 116.428 63.4626 115.157 65.1666C113.899 66.8707 112.188 68.051 110.023 68.7075V69.0427C112.733 69.4897 114.849 70.642 116.372 72.4997C117.894 74.3435 118.655 76.6272 118.655 79.351C118.655 81.6836 118.02 83.7787 116.749 85.6365C115.492 87.4802 113.774 88.9329 111.595 89.9944C109.416 91.056 106.936 91.5867 104.157 91.5867Z" fill="#5C2A2B"/>
    <mask id="mask0_2324_302" style="mask-type:alpha" maskUnits="userSpaceOnUse" x="0" y="0" width="171" height="144">
      <path d="M0 10C0 4.47715 4.47715 0 10 0H161C166.523 0 171 4.47715 171 10V134C171 139.523 166.523 144 161 144H10C4.47716 144 0 139.523 0 134V10Z" fill="#341717"/>
    </mask>
    <g mask="url(#mask0_2324_302)">
      <path d="M89.5804 33.0001V29.2288L103.744 13.7245C105.406 11.9087 106.775 10.3304 107.85 8.98944C108.926 7.63456 109.722 6.36349 110.239 5.17622C110.77 3.97499 111.035 2.71789 111.035 1.40492C111.035 -0.103599 110.672 -1.40959 109.945 -2.51305C109.233 -3.61651 108.255 -4.46854 107.012 -5.06916C105.769 -5.66977 104.372 -5.97008 102.822 -5.97008C101.174 -5.97008 99.735 -5.62787 98.5058 -4.94345C97.2906 -4.27299 96.3478 -3.33017 95.6773 -2.11497C95.0208 -0.899764 94.6926 0.524951 94.6926 2.15918H89.748C89.748 -0.355021 90.3276 -2.56194 91.487 -4.46156C92.6463 -6.36118 94.2247 -7.84177 96.2221 -8.90332C98.2334 -9.96487 100.489 -10.4956 102.989 -10.4956C105.504 -10.4956 107.732 -9.96487 109.673 -8.90332C111.615 -7.84177 113.137 -6.41007 114.241 -4.60822C115.344 -2.80637 115.896 -0.801989 115.896 1.40492C115.896 2.98328 115.609 4.52673 115.037 6.03526C114.478 7.52981 113.5 9.19895 112.103 11.0427C110.721 12.8725 108.8 15.1073 106.342 17.7473L96.704 28.0555V28.3907H116.65V33.0001H89.5804Z" fill="#7B4242"/>
      <path d="M88.5088 149.2V144.926L107.365 115.091H110.466V121.712H108.371L94.1238 144.256V144.591H119.517V149.2H88.5088ZM108.706 158V147.901V145.911V115.091H113.651V158H108.706Z" fill="#7B4242"/>
    </g>
  </g>
  <defs>
    <clipPath id="clip0_2324_302">
      <rect width="171" height="144" fill="white"/>
    </clipPath>
  </defs>
</svg> -->
<svg xmlns="http://www.w3.org/2000/svg" xmlns:xlink="http://www.w3.org/1999/xlink" width="100%" height="100%" viewBox="0 0 216 182">
  <defs>
    <clipPath id="clip-path">
      <rect id="Rectangle_788" data-name="Rectangle 788" width="59" height="30" transform="translate(799 787)" fill="#341617"/>
    </clipPath>
    <clipPath id="clip-path-2">
      <rect id="Rectangle_789" data-name="Rectangle 789" width="59" height="23" transform="translate(799 692)" fill="#341617"/>
    </clipPath>
  </defs>
  <g id="Group_12740" data-name="Group 12740" transform="translate(-716 -663)">
    <rect id="Rectangle_577" data-name="Rectangle 577" width="216" height="182" rx="10" transform="translate(716 663)" fill="#341717"/>
    <g id="Group_12728" data-name="Group 12728">
      <rect id="Rectangle_787" data-name="Rectangle 787" width="129" height="125" rx="11" transform="translate(764 692)" fill="#3b1c1c"/>
      <text id="_2" data-name="2" transform="translate(828 768)" fill="#764949" font-size="44" font-family="HelveticaNeue-Bold, Helvetica Neue" font-weight="700"><tspan x="-12.232" y="0">2</tspan></text>
      <g id="Mask_Group_39" data-name="Mask Group 39" clip-path="url(#clip-path)">
        <text id="_3" data-name="3" transform="translate(828 825)" fill="#482323" font-size="44" font-family="HelveticaNeue, Helvetica Neue"><tspan x="-12.232" y="0">3</tspan></text>
      </g>
      <g id="Mask_Group_40" data-name="Mask Group 40" clip-path="url(#clip-path-2)">
        <text id="_1" data-name="1" transform="translate(828 711)" fill="#482323" font-size="44" font-family="HelveticaNeue, Helvetica Neue"><tspan x="-12.232" y="0">1</tspan></text>
      </g>
    </g>
  </g>
   <defs>
    <clipPath id="clip0_2324_302">
      <rect width="171" height="144" fill="white"/>
    </clipPath>
  </defs>
</svg>
