
<svg xmlns="http://www.w3.org/2000/svg" width="100%" height="100%" viewBox="0 0 216 182" fill="none">
  <path d="M206 0H10C4.47715 0 0 4.47715 0 10V172C0 177.523 4.47715 182 10 182H206C211.523 182 216 177.523 216 172V10C216 4.47715 211.523 0 206 0Z" fill="#341717"/>
  <path d="M119.999 41.999H103.999C101.238 41.999 98.999 44.2376 98.999 46.999V63.999C98.999 66.7604 101.238 68.999 103.999 68.999H119.999C122.76 68.999 124.999 66.7604 124.999 63.999V46.999C124.999 44.2376 122.76 41.999 119.999 41.999Z" stroke="#3E1F1F" stroke-width="4"/>
  <path d="M119.999 78H103.999C101.238 78 98.999 80.2386 98.999 83V99C98.999 101.761 101.238 104 103.999 104H119.999C122.76 104 124.999 101.761 124.999 99V83C124.999 80.2386 122.76 78 119.999 78Z" stroke="#3E1F1F" stroke-width="4"/>
  <path d="M154.999 41.999H139.999C137.238 41.999 134.999 44.2376 134.999 46.999V63.999C134.999 66.7604 137.238 68.999 139.999 68.999H154.999C157.76 68.999 159.999 66.7604 159.999 63.999V46.999C159.999 44.2376 157.76 41.999 154.999 41.999Z" stroke="#3E1F1F" stroke-width="4"/>
  <path d="M154.999 78H139.999C137.238 78 134.999 80.2386 134.999 83V99C134.999 101.761 137.238 104 139.999 104H154.999C157.76 104 159.999 101.761 159.999 99V83C159.999 80.2386 157.76 78 154.999 78Z" stroke="#3E1F1F" stroke-width="4"/>
  <path d="M119.999 113H103.999C101.238 113 98.999 115.238 98.999 118V135C98.999 137.761 101.238 140 103.999 140H119.999C122.76 140 124.999 137.761 124.999 135V118C124.999 115.238 122.76 113 119.999 113Z" stroke="#3E1F1F" stroke-width="4"/>
  <path d="M154.999 113H139.999C137.238 113 134.999 115.238 134.999 118V135C134.999 137.761 137.238 140 139.999 140H154.999C157.76 140 159.999 137.761 159.999 135V118C159.999 115.238 157.76 113 154.999 113Z" stroke="#3E1F1F" stroke-width="4"/>
  <path d="M84 113H69C66.2386 113 64 115.238 64 118V134C64 136.761 66.2386 139 69 139H84C86.7614 139 89 136.761 89 134V118C89 115.238 86.7614 113 84 113Z" stroke="#3E1F1F" stroke-width="4"/>
  <path d="M84 76.9995H69C66.2386 76.9995 64 79.2381 64 81.9995V98.9995C64 101.761 66.2386 104 69 104H84C86.7614 104 89 101.761 89 98.9995V81.9995C89 79.2381 86.7614 76.9995 84 76.9995Z" stroke="#3E1F1F" stroke-width="4"/>
  <path d="M84 43H69C66.2386 43 64 45.2386 64 48V64C64 66.7614 66.2386 69 69 69H84C86.7614 69 89 66.7614 89 64V48C89 45.2386 86.7614 43 84 43Z" stroke="#3E1F1F" stroke-width="4"/>
     <defs>
        <clipPath id="clip0_2324_276">
        <rect width="171" height="144" fill="white" transform="matrix(0 1 -1 0 144 0)"/>
        </clipPath>
        </defs>     <defs>
        <clipPath id="clip0_2324_276">
        <rect width="171" height="144" fill="white" transform="matrix(0 1 -1 0 144 0)"/>
        </clipPath>
        </defs>
</svg>