<!-- <svg xmlns="http://www.w3.org/2000/svg" width="100%" height="100%" viewBox="0 0 173 144" fill="none">
  <g clip-path="url(#clip0_2324_276)">
    <path d="M-0.000244141 10C-0.000244141 4.47715 4.47691 0 9.99976 0H163C168.523 0 173 4.47715 173 10V134C173 139.523 168.523 144 163 144H9.99975C4.47691 144 -0.000244141 139.523 -0.000244141 134V10Z" fill="#341717"/>
    <path d="M68.9998 5C68.9998 2.23857 71.2383 0 73.9998 0H166C168.761 0 171 2.23858 171 5V139C171 141.761 168.761 144 166 144H73.9998C71.2383 144 68.9998 141.761 68.9998 139V5Z" fill="#452121"/>
    <path d="M-0.000244141 5C-0.000244141 2.23857 2.23833 0 4.99976 0H81.9998C93.0454 0 102 8.95431 102 20V139C102 141.761 99.7612 144 96.9998 144H19.9998C8.95406 144 -0.000244141 135.046 -0.000244141 124V5Z" fill="#6E4242"/>
  </g>
  <defs>
    <clipPath id="clip0_2324_276">
      <rect width="173" height="144" fill="white"/>
    </clipPath>
  </defs>
</svg> -->
        

  <svg xmlns="http://www.w3.org/2000/svg" width="100%" height="100%" viewBox="0 0 218 182" fill="none">
  <path d="M208 0H10C4.47715 0 0 4.47715 0 10V172C0 177.523 4.47715 182 10 182H208C213.523 182 218 177.523 218 172V10C218 4.47715 213.523 0 208 0Z" fill="#341717"/>
  <g opacity="0.311">
    <path d="M94.9171 130.246L165.831 130.201C169.931 130.201 173.252 127.284 173.249 123.692L173.194 58.2578C173.194 54.6658 169.865 51.7578 165.765 51.7578L94.8521 51.7988C90.7521 51.7988 87.4311 54.7158 87.4341 58.3088L87.4891 123.746C87.4891 127.338 90.8181 130.246 94.9181 130.246" fill="#401F1F"/>
    <path d="M133.985 115.859C133.514 115.859 133.052 115.736 132.645 115.501C132.237 115.266 131.898 114.928 131.662 114.521C131.427 114.114 131.302 113.652 131.302 113.181C131.301 112.711 131.424 112.249 131.659 111.841L143.659 90.9949C143.912 90.5554 144.276 90.1902 144.715 89.9362C145.154 89.6821 145.652 89.548 146.16 89.5474C146.667 89.5468 147.165 89.6797 147.605 89.9327C148.044 90.1857 148.41 90.5499 148.664 90.9888L162.618 115.095C162.661 115.169 162.683 115.253 162.683 115.339C162.683 115.424 162.661 115.508 162.618 115.583C162.575 115.657 162.514 115.718 162.44 115.761C162.366 115.804 162.282 115.827 162.196 115.827L133.985 115.859Z" fill="#AD7474"/>
    <path opacity="0.745" d="M98.265 115.168L119 79.1589C119.253 78.7194 119.618 78.3543 120.057 78.1002C120.495 77.8461 120.994 77.712 121.501 77.7114C122.008 77.7108 122.506 77.8437 122.946 78.0967C123.386 78.3498 123.751 78.714 124.005 79.1529L145.245 115.846L98.6881 115.899C98.6025 115.899 98.5184 115.876 98.4443 115.834C98.3702 115.791 98.3087 115.729 98.2658 115.655C98.223 115.581 98.2003 115.497 98.2002 115.412C98.2001 115.326 98.2224 115.242 98.265 115.168Z" fill="#DDAAA6"/>
    <path d="M138.016 72.0799C138.018 73.6872 138.497 75.2578 139.391 76.5932C140.286 77.9285 141.556 78.9686 143.042 79.582C144.528 80.1953 146.162 80.3543 147.738 80.0388C149.314 79.7234 150.761 78.9477 151.896 77.8098C153.032 76.6719 153.804 75.223 154.116 73.6462C154.427 72.0694 154.265 70.4355 153.648 68.9513C153.031 67.467 151.988 66.1989 150.651 65.3075C149.313 64.416 147.741 63.9411 146.134 63.9429C145.067 63.9441 144.01 64.1555 143.024 64.565C142.039 64.9746 141.143 65.5743 140.39 66.3299C139.636 67.0855 139.038 67.9822 138.631 68.9688C138.224 69.9554 138.015 71.0125 138.016 72.0799Z" fill="#AD7474"/>
  </g>
  <path d="M52.0089 130.246L122.923 130.201C127.023 130.201 130.344 127.284 130.341 123.692L130.286 58.2578C130.286 54.6658 126.957 51.7578 122.857 51.7578L51.9439 51.7988C47.8439 51.7988 44.5229 54.7158 44.5259 58.3088L44.5809 123.746C44.5809 127.338 47.9099 130.246 52.0099 130.246" fill="#3E1F1F"/>
  <path opacity="0.502" d="M91.0767 115.859C90.6062 115.859 90.144 115.736 89.7363 115.501C89.3287 115.266 88.99 114.928 88.7543 114.521C88.5186 114.114 88.3942 113.652 88.3936 113.181C88.3929 112.711 88.5161 112.249 88.7507 111.841L100.751 90.9949C101.004 90.5554 101.368 90.1902 101.807 89.9362C102.246 89.6821 102.744 89.548 103.251 89.5474C103.759 89.5468 104.257 89.6797 104.697 89.9327C105.136 90.1857 105.502 90.5499 105.756 90.9888L119.71 115.095C119.753 115.169 119.775 115.253 119.775 115.339C119.775 115.424 119.753 115.508 119.71 115.583C119.667 115.657 119.606 115.718 119.531 115.761C119.457 115.804 119.373 115.827 119.288 115.827L91.0767 115.859Z" fill="#AD7474"/>
  <path opacity="0.403" d="M55.3568 115.168L76.0918 79.1589C76.345 78.7194 76.7093 78.3543 77.1483 78.1002C77.5873 77.8461 78.0854 77.712 78.5926 77.7114C79.0998 77.7108 79.5982 77.8437 80.0378 78.0967C80.4774 78.3498 80.8426 78.714 81.0968 79.1529L102.337 115.846L55.7798 115.899C55.6943 115.899 55.6102 115.876 55.5361 115.834C55.462 115.791 55.4005 115.729 55.3576 115.655C55.3148 115.581 55.2921 115.497 55.292 115.412C55.2918 115.326 55.3142 115.242 55.3568 115.168Z" fill="#DDAAA6"/>
  <path opacity="0.571" d="M95.1079 72.0799C95.1099 73.6872 95.5884 75.2578 96.483 76.5932C97.3776 77.9285 98.6481 78.9686 100.134 79.582C101.62 80.1953 103.254 80.3543 104.83 80.0388C106.406 79.7234 107.853 78.9477 108.988 77.8098C110.124 76.6719 110.896 75.223 111.208 73.6462C111.519 72.0694 111.357 70.4355 110.74 68.9513C110.123 67.467 109.08 66.1989 107.742 65.3075C106.405 64.416 104.833 63.9411 103.226 63.9429C102.158 63.9441 101.102 64.1555 100.116 64.565C99.1306 64.9746 98.2353 65.5743 97.4815 66.3299C96.7276 67.0855 96.1301 67.9822 95.7228 68.9688C95.3155 69.9554 95.1066 71.0125 95.1079 72.0799Z" fill="#AD7474"/>
  <defs>
    <clipPath id="clip0_2324_276">
      <rect width="173" height="144" fill="white"/>
    </clipPath>
  </defs>
</svg>