<!-- <svg xmlns="http://www.w3.org/2000/svg" width="100%" height="100%" viewBox="0 0 172 144" fill="none">
  <g clip-path="url(#clip0_2324_229)">
    <path d="M-0.000244141 10C-0.000244141 4.47715 4.47691 0 9.99976 0H162C167.523 0 172 4.47715 172 10V134C172 139.523 167.523 144 162 144H9.99976C4.47691 144 -0.000244141 139.523 -0.000244141 134V10Z" fill="#341717"/>
    <path opacity="0.294937" d="M5.99976 5C5.99976 2.23857 8.23833 0 10.9998 0H37.9998C40.7612 0 42.9998 2.23858 42.9998 5V139C42.9998 141.761 40.7612 144 37.9998 144H10.9998C8.23833 144 5.99976 141.761 5.99976 139V5Z" fill="#D5B7B7" fill-opacity="0.0509804"/>
    <path opacity="0.294937" d="M47.9998 5C47.9998 2.23857 50.2383 0 52.9998 0H78.9998C81.7612 0 83.9998 2.23858 83.9998 5V139C83.9998 141.761 81.7612 144 78.9998 144H52.9998C50.2383 144 47.9998 141.761 47.9998 139V5Z" fill="#D5B7B7" fill-opacity="0.0509804"/>
    <path opacity="0.294937" d="M88.9998 5C88.9998 2.23857 91.2383 0 93.9998 0H120C122.761 0 125 2.23858 125 5V139C125 141.761 122.761 144 120 144H93.9998C91.2383 144 88.9998 141.761 88.9998 139V5Z" fill="#D5B7B7" fill-opacity="0.0509804"/>
    <path opacity="0.294937" d="M130 5C130 2.23857 132.238 0 135 0H161C163.761 0 166 2.23858 166 5V139C166 141.761 163.761 144 161 144H135C132.238 144 130 141.761 130 139V5Z" fill="#D5B7B7" fill-opacity="0.0509804"/>
    <path d="M32.4634 56.8184V75.0002H30.2617V59.1266H30.1551L25.7162 62.0741V59.8368L30.2617 56.8184H32.4634Z" fill="#6E4242"/>
    <path d="M68.3135 75.0002V73.4022L74.3149 66.8326C75.0192 66.0632 75.5992 65.3944 76.055 64.8262C76.5107 64.2521 76.8481 63.7135 77.0671 63.2104C77.292 62.7014 77.4044 62.1688 77.4044 61.6124C77.4044 60.9732 77.2505 60.4198 76.9428 59.9523C76.6409 59.4847 76.2266 59.1237 75.6999 58.8692C75.1731 58.6147 74.5813 58.4874 73.9243 58.4874C73.2259 58.4874 72.6163 58.6324 72.0955 58.9224C71.5805 59.2065 71.181 59.606 70.897 60.1209C70.6188 60.6359 70.4797 61.2395 70.4797 61.932H68.3845C68.3845 60.8667 68.6301 59.9315 69.1214 59.1266C69.6126 58.3217 70.2814 57.6943 71.1278 57.2445C71.98 56.7947 72.9359 56.5698 73.9953 56.5698C75.0607 56.5698 76.0047 56.7947 76.8273 57.2445C77.65 57.6943 78.2952 58.301 78.7627 59.0645C79.2303 59.828 79.4641 60.6773 79.4641 61.6124C79.4641 62.2812 79.3427 62.9352 79.1001 63.5744C78.8633 64.2077 78.449 64.915 77.8572 65.6962C77.2712 66.4716 76.4574 67.4185 75.4158 68.5371L71.332 72.905V73.0471H79.7837V75.0002H68.3135Z" fill="#6E4242"/>
    <path d="M116.066 75.2488C114.894 75.2488 113.85 75.0475 112.932 74.6451C112.021 74.2426 111.296 73.6833 110.757 72.9672C110.225 72.2451 109.935 71.4076 109.887 70.4547H112.125C112.172 71.0407 112.373 71.5467 112.728 71.9729C113.083 72.3931 113.548 72.7186 114.122 72.9494C114.696 73.1802 115.332 73.2957 116.031 73.2957C116.812 73.2957 117.505 73.1595 118.108 72.8873C118.712 72.615 119.185 72.2362 119.529 71.7509C119.872 71.2656 120.044 70.7033 120.044 70.0641C120.044 69.3953 119.878 68.8064 119.546 68.2974C119.215 67.7825 118.73 67.3801 118.09 67.09C117.451 66.8 116.67 66.655 115.747 66.655H114.291V64.7019H115.747C116.469 64.7019 117.102 64.5717 117.647 64.3113C118.197 64.0509 118.626 63.6839 118.934 63.2104C119.248 62.7369 119.404 62.1806 119.404 61.5414C119.404 60.9259 119.268 60.3902 118.996 59.9345C118.724 59.4788 118.339 59.1237 117.842 58.8692C117.351 58.6147 116.771 58.4874 116.102 58.4874C115.474 58.4874 114.883 58.6028 114.326 58.8337C113.776 59.0586 113.326 59.387 112.977 59.8191C112.628 60.2452 112.438 60.7601 112.409 61.3638H110.278C110.313 60.4109 110.601 59.5764 111.139 58.8603C111.678 58.1382 112.382 57.576 113.252 57.1735C114.128 56.771 115.09 56.5698 116.137 56.5698C117.262 56.5698 118.227 56.7977 119.032 57.2534C119.836 57.7032 120.455 58.298 120.887 59.0378C121.319 59.7777 121.535 60.5767 121.535 61.4349C121.535 62.4588 121.266 63.3318 120.727 64.0538C120.195 64.7759 119.47 65.276 118.552 65.5542V65.6962C119.7 65.8856 120.597 66.3739 121.242 67.1611C121.887 67.9423 122.21 68.91 122.21 70.0641C122.21 71.0525 121.941 71.9403 121.402 72.7275C120.869 73.5087 120.141 74.1243 119.218 74.5741C118.295 75.0239 117.244 75.2488 116.066 75.2488Z" fill="#6E4242"/>
    <path d="M149.936 71.2715V69.4604L157.926 56.8184H159.24V59.6238H158.352L152.315 69.1763V69.3184H163.075V71.2715H149.936ZM158.494 75.0002V70.7211V69.8777V56.8184H160.589V75.0002H158.494Z" fill="#6E4242"/>
  </g>
  <defs>
    <clipPath id="clip0_2324_229">
      <rect width="172" height="144" fill="white"/>
    </clipPath>
  </defs>
</svg> -->
<svg xmlns="http://www.w3.org/2000/svg"  width="100%" height="100%" viewBox="0 0 217 182" fill="none">
  <path d="M207 0H10C4.47715 0 0 4.47715 0 10V172C0 177.523 4.47715 182 10 182H207C212.523 182 217 177.523 217 172V10C217 4.47715 212.523 0 207 0Z" fill="#341717"/>
  <path d="M70 23H35C30.5817 23 27 26.5817 27 31V152C27 156.418 30.5817 160 35 160H70C74.4183 160 78 156.418 78 152V31C78 26.5817 74.4183 23 70 23Z" fill="#3B1C1C"/>
  <path opacity="0.502" d="M54.7279 101.037C54.5513 101.037 54.3778 100.991 54.2247 100.903C54.0717 100.815 53.9446 100.688 53.8561 100.535C53.7676 100.382 53.7209 100.209 53.7207 100.032C53.7205 99.8556 53.7667 99.682 53.8549 99.529L58.3599 91.706C58.455 91.5411 58.5919 91.4042 58.7567 91.309C58.9216 91.2137 59.1086 91.1636 59.299 91.1636C59.4893 91.1636 59.6762 91.2137 59.8411 91.309C60.0059 91.4042 60.1428 91.5411 60.2379 91.706L65.4749 100.753C65.491 100.781 65.4997 100.812 65.4998 100.845C65.4998 100.877 65.4914 100.908 65.4753 100.936C65.4593 100.964 65.4363 100.987 65.4084 101.003C65.3806 101.019 65.3491 101.028 65.3169 101.028L54.7279 101.037Z" fill="#AD7474"/>
  <path opacity="0.403" d="M41.321 100.778L49.102 87.2641C49.1973 87.0994 49.3342 86.9627 49.499 86.8677C49.6638 86.7727 49.8507 86.7227 50.041 86.7227C50.2312 86.7227 50.4181 86.7727 50.5829 86.8677C50.7478 86.9627 50.8847 87.0994 50.98 87.2641L58.951 101.034L41.479 101.054C41.4469 101.054 41.4153 101.046 41.3875 101.03C41.3597 101.014 41.3366 100.991 41.3205 100.963C41.3044 100.935 41.2959 100.904 41.2958 100.872C41.2957 100.839 41.304 100.808 41.32 100.78" fill="#DDAAA6"/>
  <path opacity="0.571" d="M56.24 84.6082C56.2408 85.2114 56.4204 85.8008 56.7561 86.3019C57.0919 86.803 57.5687 87.1933 58.1262 87.4235C58.6838 87.6536 59.2971 87.7133 59.8886 87.5949C60.48 87.4765 61.0231 87.1854 61.4491 86.7584C61.8751 86.3314 62.165 85.7876 62.282 85.1959C62.399 84.6042 62.338 83.991 62.1066 83.434C61.8751 82.877 61.4837 82.4011 60.9818 82.0665C60.4799 81.7319 59.8902 81.5536 59.287 81.5542C58.8864 81.5546 58.4897 81.6339 58.1198 81.7876C57.7498 81.9413 57.4138 82.1664 57.1309 82.45C56.8479 82.7336 56.6236 83.0702 56.4707 83.4405C56.3179 83.8108 56.2395 84.2076 56.24 84.6082Z" fill="#AD7474"/>
  <path d="M126 23H91C86.5817 23 83 26.5817 83 31V152C83 156.418 86.5817 160 91 160H126C130.418 160 134 156.418 134 152V31C134 26.5817 130.418 23 126 23Z" fill="#3B1C1C"/>
  <path opacity="0.502" d="M110.728 101.037C110.551 101.037 110.378 100.991 110.225 100.903C110.072 100.815 109.945 100.688 109.856 100.535C109.768 100.382 109.721 100.209 109.721 100.032C109.72 99.8556 109.767 99.682 109.855 99.529L114.36 91.706C114.455 91.5411 114.592 91.4042 114.757 91.309C114.922 91.2137 115.109 91.1636 115.299 91.1636C115.489 91.1636 115.676 91.2137 115.841 91.309C116.006 91.4042 116.143 91.5411 116.238 91.706L121.475 100.753C121.491 100.781 121.5 100.812 121.5 100.845C121.5 100.877 121.491 100.908 121.475 100.936C121.459 100.964 121.436 100.987 121.408 101.003C121.381 101.019 121.349 101.028 121.317 101.028L110.728 101.037Z" fill="#AD7474"/>
  <path opacity="0.403" d="M97.321 100.778L105.102 87.2641C105.197 87.0994 105.334 86.9627 105.499 86.8677C105.664 86.7727 105.851 86.7227 106.041 86.7227C106.231 86.7227 106.418 86.7727 106.583 86.8677C106.748 86.9627 106.885 87.0994 106.98 87.2641L114.951 101.034L97.479 101.054C97.4469 101.054 97.4153 101.046 97.3875 101.03C97.3597 101.014 97.3366 100.991 97.3205 100.963C97.3044 100.935 97.2959 100.904 97.2958 100.872C97.2957 100.839 97.304 100.808 97.32 100.78" fill="#DDAAA6"/>
  <path opacity="0.571" d="M112.24 84.6082C112.241 85.2114 112.42 85.8008 112.756 86.3019C113.092 86.803 113.569 87.1933 114.126 87.4235C114.684 87.6536 115.297 87.7133 115.889 87.5949C116.48 87.4765 117.023 87.1854 117.449 86.7584C117.875 86.3314 118.165 85.7876 118.282 85.1959C118.399 84.6042 118.338 83.991 118.107 83.434C117.875 82.877 117.484 82.4011 116.982 82.0665C116.48 81.7319 115.89 81.5536 115.287 81.5542C114.886 81.5546 114.49 81.6339 114.12 81.7876C113.75 81.9413 113.414 82.1664 113.131 82.45C112.848 82.7336 112.624 83.0702 112.471 83.4405C112.318 83.8108 112.239 84.2076 112.24 84.6082Z" fill="#AD7474"/>
  <path d="M182 23H147C142.582 23 139 26.5817 139 31V152C139 156.418 142.582 160 147 160H182C186.418 160 190 156.418 190 152V31C190 26.5817 186.418 23 182 23Z" fill="#3B1C1C"/>
  <path opacity="0.502" d="M166.728 101.037C166.551 101.037 166.378 100.991 166.225 100.903C166.072 100.815 165.945 100.688 165.856 100.535C165.768 100.382 165.721 100.209 165.721 100.032C165.72 99.8556 165.767 99.682 165.855 99.529L170.36 91.706C170.455 91.5411 170.592 91.4042 170.757 91.309C170.922 91.2137 171.109 91.1636 171.299 91.1636C171.489 91.1636 171.676 91.2137 171.841 91.309C172.006 91.4042 172.143 91.5411 172.238 91.706L177.475 100.753C177.491 100.781 177.5 100.812 177.5 100.845C177.5 100.877 177.491 100.908 177.475 100.936C177.459 100.964 177.436 100.987 177.408 101.003C177.381 101.019 177.349 101.028 177.317 101.028L166.728 101.037Z" fill="#AD7474"/>
  <path opacity="0.403" d="M153.321 100.778L161.102 87.2641C161.197 87.0994 161.334 86.9627 161.499 86.8677C161.664 86.7727 161.851 86.7227 162.041 86.7227C162.231 86.7227 162.418 86.7727 162.583 86.8677C162.748 86.9627 162.885 87.0994 162.98 87.2641L170.951 101.034L153.479 101.054C153.447 101.054 153.415 101.046 153.388 101.03C153.36 101.014 153.337 100.991 153.32 100.963C153.304 100.935 153.296 100.904 153.296 100.872C153.296 100.839 153.304 100.808 153.32 100.78" fill="#DDAAA6"/>
  <path opacity="0.571" d="M168.24 84.6082C168.241 85.2114 168.42 85.8008 168.756 86.3019C169.092 86.803 169.569 87.1933 170.126 87.4235C170.684 87.6536 171.297 87.7133 171.889 87.5949C172.48 87.4765 173.023 87.1854 173.449 86.7584C173.875 86.3314 174.165 85.7876 174.282 85.1959C174.399 84.6042 174.338 83.991 174.107 83.434C173.875 82.877 173.484 82.4011 172.982 82.0665C172.48 81.7319 171.89 81.5536 171.287 81.5542C170.886 81.5546 170.49 81.6339 170.12 81.7876C169.75 81.9413 169.414 82.1664 169.131 82.45C168.848 82.7336 168.624 83.0702 168.471 83.4405C168.318 83.8108 168.239 84.2076 168.24 84.6082Z" fill="#AD7474"/>
  <defs>
    <clipPath id="clip0_2324_229">
      <rect width="172" height="144" fill="white"/>
    </clipPath>
  </defs>
</svg>