<!-- <svg xmlns="http://www.w3.org/2000/svg" width="100%" height="100%" viewBox="0 0 172 144" fill="none">
  <g clip-path="url(#clip0_2324_259)">
    <path d="M-0.000244141 10C-0.000244141 4.47715 4.47691 0 9.99976 0H162C167.523 0 172 4.47715 172 10V134C172 139.523 167.523 144 162 144H9.99976C4.47691 144 -0.000244141 139.523 -0.000244141 134V10Z" fill="#341717"/>
    <path d="M49.6896 89.9092V95.0001H49.0731V90.5555H49.0433L47.8004 91.3808V90.7544L49.0731 89.9092H49.6896Z" fill="#6E4242"/>
    <path d="M134.908 94.9999V94.5525L136.588 92.713C136.785 92.4975 136.948 92.3103 137.075 92.1512C137.203 91.9904 137.297 91.8396 137.359 91.6988C137.422 91.5562 137.453 91.4071 137.453 91.2513C137.453 91.0723 137.41 90.9174 137.324 90.7865C137.239 90.6556 137.123 90.5545 136.976 90.4832C136.828 90.412 136.663 90.3763 136.479 90.3763C136.283 90.3763 136.112 90.4169 135.967 90.4981C135.822 90.5777 135.711 90.6895 135.631 90.8337C135.553 90.9779 135.514 91.1469 135.514 91.3408H134.927C134.927 91.0425 134.996 90.7807 135.134 90.5553C135.271 90.3299 135.459 90.1543 135.696 90.0283C135.934 89.9024 136.202 89.8394 136.499 89.8394C136.797 89.8394 137.061 89.9024 137.291 90.0283C137.522 90.1543 137.702 90.3241 137.833 90.5379C137.964 90.7517 138.03 90.9895 138.03 91.2513C138.03 91.4386 137.996 91.6217 137.928 91.8007C137.862 91.978 137.746 92.176 137.58 92.3948C137.416 92.6119 137.188 92.877 136.896 93.1902L135.753 94.4133V94.453H138.119V94.9999H134.908Z" fill="#6E4242"/>
    <path opacity="0.487728" d="M89.9998 0.499998C89.9998 0.223856 90.2236 0 90.4998 0C90.7759 0 90.9998 0.223858 90.9998 0.5V143.5C90.9998 143.776 90.7759 144 90.4998 144C90.2236 144 89.9998 143.776 89.9998 143.5V0.499998Z" fill="#6E4242"/>
    <path d="M84 75.5C84 73.567 85.567 72 87.5 72H93.5C95.433 72 97 73.567 97 75.5C97 77.433 95.433 79 93.5 79H87.5C85.567 79 84 77.433 84 75.5Z" fill="#502C2C"/>
    <path d="M93.4731 76.3237L94.6064 75.1904L93.4731 74.0571" stroke="white" stroke-width="0.5" stroke-linecap="round" stroke-linejoin="round"/>
    <path d="M87.8558 76.3237L86.7225 75.1904L87.8558 74.0571" stroke="white" stroke-width="0.5" stroke-linecap="round" stroke-linejoin="round"/>
    <path d="M61.9343 82.3465V62.0243C61.9343 60.4275 60.6278 59.1211 59.0311 59.1211H38.7088C37.1121 59.1211 35.8057 60.4275 35.8057 62.0243V82.3465C35.8057 83.9433 37.1121 85.2497 38.7088 85.2497H59.0311C60.6278 85.2497 61.9343 83.9433 61.9343 82.3465ZM43.7894 74.3628L47.4184 78.7321L52.4989 72.1854L59.0311 80.8949H38.7088L43.7894 74.3628Z" fill="#914F51"/>
    <path d="M147.446 82.3465V62.0243C147.446 60.4275 146.14 59.1211 144.543 59.1211H124.221C122.624 59.1211 121.317 60.4275 121.317 62.0243V82.3465C121.317 83.9433 122.624 85.2497 124.221 85.2497H144.543C146.14 85.2497 147.446 83.9433 147.446 82.3465ZM129.301 74.3628L132.93 78.7321L138.011 72.1854L144.543 80.8949H124.221L129.301 74.3628Z" fill="#914F51"/>
  </g>
  <defs>
    <clipPath id="clip0_2324_259">
      <rect width="172" height="144" fill="white"/>
    </clipPath>
  </defs>
</svg> -->
<svg xmlns="http://www.w3.org/2000/svg" width="100%" height="100%" viewBox="0 0 217 182" fill="none">
  <path d="M207 0H10C4.47715 0 0 4.47715 0 10V172C0 177.523 4.47715 182 10 182H207C212.523 182 217 177.523 217 172V10C217 4.47715 212.523 0 207 0Z" fill="#341717"/>
  <path d="M114 2C114 0.89543 113.105 0 112 0C110.895 0 110 0.89543 110 2V180C110 181.105 110.895 182 112 182C113.105 182 114 181.105 114 180V2Z" fill="#3B1C1C"/>
  <path d="M120.5 93H103.5C100.462 93 98 95.4624 98 98.5C98 101.538 100.462 104 103.5 104H120.5C123.538 104 126 101.538 126 98.5C126 95.4624 123.538 93 120.5 93Z" fill="#401F1F"/>
  <path d="M118.832 99.6638L120.263 98.2328L118.832 96.8008" stroke="#775451" stroke-width="0.5" stroke-linecap="round" stroke-linejoin="round"/>
  <path d="M104.738 99.6638L103.307 98.2318L104.738 96.8008" stroke="#775451" stroke-width="0.5" stroke-linecap="round" stroke-linejoin="round"/>
  <path opacity="0.502" d="M163.718 98.9578C163.949 98.958 164.175 98.8974 164.375 98.7823C164.575 98.6672 164.741 98.5015 164.856 98.3019C164.972 98.1023 165.033 97.8758 165.034 97.6451C165.034 97.4145 164.974 97.1878 164.859 96.9878L158.973 86.7658C158.849 86.5505 158.67 86.3717 158.454 86.2474C158.239 86.1231 157.995 86.0576 157.746 86.0576C157.497 86.0576 157.253 86.1231 157.037 86.2474C156.822 86.3717 156.643 86.5505 156.519 86.7658L149.676 98.5858C149.655 98.6222 149.644 98.6634 149.644 98.7054C149.643 98.7475 149.655 98.7888 149.676 98.8252C149.697 98.8616 149.727 98.8918 149.763 98.9128C149.799 98.9338 149.841 98.9449 149.883 98.9448L163.718 98.9578Z" fill="#AD7474"/>
  <path opacity="0.403" d="M181.229 98.6182L171.061 80.9612C170.937 80.7458 170.758 80.567 170.542 80.4427C170.327 80.3184 170.083 80.2529 169.834 80.2529C169.585 80.2529 169.341 80.3184 169.126 80.4427C168.91 80.567 168.731 80.7458 168.607 80.9612L158.191 98.9532L181.021 98.9792C181.063 98.9794 181.104 98.9685 181.141 98.9475C181.178 98.9266 181.208 98.8964 181.229 98.86C181.25 98.8235 181.261 98.7822 181.261 98.7401C181.261 98.6979 181.25 98.6566 181.229 98.6201" fill="#DDAAA6"/>
  <path opacity="0.571" d="M161.737 77.49C161.736 78.2781 161.501 79.0482 161.063 79.703C160.624 80.3577 160.001 80.8677 159.272 81.1685C158.544 81.4692 157.743 81.5472 156.97 81.3925C156.197 81.2379 155.487 80.8575 154.931 80.2996C154.374 79.7417 153.995 79.0313 153.843 78.2581C153.69 77.485 153.769 76.6839 154.072 75.9561C154.374 75.2283 154.886 74.6065 155.541 74.1693C156.197 73.7321 156.968 73.4992 157.756 73.5C158.279 73.5005 158.797 73.6042 159.281 73.805C159.764 74.0058 160.203 74.2998 160.573 74.6704C160.943 75.0409 161.236 75.4806 161.435 75.9644C161.635 76.4482 161.738 76.9666 161.737 77.49Z" fill="#AD7474"/>
  <path d="M149.638 111.718H181.261" stroke="#482323" stroke-width="3" stroke-linecap="round"/>
  <path d="M149.638 118.251H181.261" stroke="#482323" stroke-width="3" stroke-linecap="round"/>
  <path opacity="0.502" d="M56.718 98.9578C56.9487 98.958 57.1753 98.8974 57.3751 98.7823C57.575 98.6672 57.741 98.5015 57.8566 98.3019C57.9722 98.1023 58.0333 97.8758 58.0337 97.6451C58.0341 97.4145 57.9739 97.1878 57.859 96.9878L51.973 86.7658C51.8486 86.5505 51.6697 86.3717 51.4543 86.2474C51.239 86.1231 50.9947 86.0576 50.746 86.0576C50.4973 86.0576 50.253 86.1231 50.0376 86.2474C49.8222 86.3717 49.6433 86.5505 49.5189 86.7658L42.676 98.5858C42.6549 98.6222 42.6437 98.6634 42.6437 98.7054C42.6436 98.7475 42.6547 98.7888 42.6757 98.8252C42.6967 98.8616 42.7268 98.8918 42.7632 98.9128C42.7996 98.9338 42.8409 98.9449 42.8829 98.9448L56.718 98.9578Z" fill="#AD7474"/>
  <path opacity="0.403" d="M74.229 98.6182L64.061 80.9612C63.9366 80.7458 63.7578 80.567 63.5424 80.4427C63.327 80.3184 63.0827 80.2529 62.834 80.2529C62.5854 80.2529 62.3411 80.3184 62.1257 80.4427C61.9103 80.567 61.7314 80.7458 61.6071 80.9612L51.191 98.9532L74.0211 98.9792C74.0632 98.9794 74.1046 98.9685 74.1411 98.9475C74.1777 98.9266 74.208 98.8964 74.2291 98.86C74.2502 98.8235 74.2614 98.7822 74.2614 98.7401C74.2613 98.6979 74.2501 98.6566 74.229 98.6201" fill="#DDAAA6"/>
  <path opacity="0.571" d="M54.737 77.49C54.736 78.2781 54.5013 79.0482 54.0627 79.703C53.624 80.3577 53.0011 80.8677 52.2726 81.1685C51.5441 81.4692 50.7428 81.5472 49.97 81.3925C49.1972 81.2379 48.4876 80.8575 47.9309 80.2996C47.3743 79.7417 46.9956 79.0313 46.8427 78.2581C46.6898 77.485 46.7696 76.6839 47.0719 75.9561C47.3743 75.2283 47.8857 74.6065 48.5414 74.1693C49.1972 73.7321 49.9679 73.4992 50.756 73.5C51.2794 73.5005 51.7976 73.6042 52.2809 73.805C52.7643 74.0058 53.2034 74.2998 53.573 74.6704C53.9427 75.0409 54.2357 75.4806 54.4355 75.9644C54.6352 76.4482 54.7376 76.9666 54.737 77.49Z" fill="#AD7474"/>
  <path d="M42.6379 111.718H74.261" stroke="#482323" stroke-width="3" stroke-linecap="round"/>
  <path d="M42.6379 118.251H74.261" stroke="#482323" stroke-width="3" stroke-linecap="round"/>
  <defs>
    <clipPath id="clip0_2324_259">
      <rect width="172" height="144" fill="white"/>
    </clipPath>
  </defs>
</svg>