<!-- <svg xmlns="http://www.w3.org/2000/svg" width="100%" height="100%" viewBox="0 0 171 144" fill="none">
        <g clip-path="url(#clip0_2324_239)">
        <path d="M-0.000244141 10C-0.000244141 4.47715 4.47691 0 9.99976 0H161C166.523 0 171 4.47715 171 10V134C171 139.523 166.523 144 161 144H9.99976C4.47691 144 -0.000244141 139.523 -0.000244141 134V10Z" fill="#341717"/>
        <path d="M37.9998 29C37.9998 22.9249 42.9246 18 48.9998 18H129C135.075 18 140 22.9249 140 29V115C140 121.075 135.075 126 129 126H48.9998C42.9246 126 37.9998 121.075 37.9998 115V29Z" fill="#3E1F1F"/>
        <path d="M37.9998 23C37.9998 20.2386 40.2383 18 42.9998 18H135C137.761 18 140 20.2386 140 23V67C140 69.7614 137.761 72 135 72H42.9998C40.2383 72 37.9998 69.7614 37.9998 67V23Z" fill="#6E4242"/>
        <path d="M70.4088 86.182V92.0002H69.7043V86.182H70.4088ZM71.7306 92.0002V87.6366H72.3783V88.3184H72.4351C72.526 88.0854 72.6728 87.9046 72.8755 87.7758C73.0781 87.6451 73.3215 87.5797 73.6056 87.5797C73.8935 87.5797 74.133 87.6451 74.3243 87.7758C74.5175 87.9046 74.6681 88.0854 74.776 88.3184H74.8215C74.9332 88.093 75.1008 87.914 75.3243 87.7814C75.5478 87.647 75.8158 87.5797 76.1283 87.5797C76.5185 87.5797 76.8376 87.7019 77.0857 87.9462C77.3338 88.1886 77.4579 88.5665 77.4579 89.0797V92.0002H76.7874V89.0797C76.7874 88.7578 76.6993 88.5277 76.5232 88.3894C76.3471 88.2511 76.1397 88.182 75.901 88.182C75.5942 88.182 75.3565 88.2748 75.188 88.4604C75.0194 88.6441 74.9351 88.8771 74.9351 89.1593V92.0002H74.2533V89.0116C74.2533 88.7635 74.1728 88.5636 74.0118 88.4121C73.8508 88.2587 73.6435 88.182 73.3897 88.182C73.2154 88.182 73.0525 88.2284 72.901 88.3212C72.7514 88.414 72.6302 88.5428 72.5374 88.7076C72.4465 88.8705 72.401 89.0589 72.401 89.2729V92.0002H71.7306ZM79.9678 92.1025C79.6913 92.1025 79.4403 92.0504 79.215 91.9462C78.9896 91.8402 78.8106 91.6877 78.678 91.4888C78.5454 91.2881 78.4792 91.0457 78.4792 90.7616C78.4792 90.5116 78.5284 90.3089 78.6269 90.1536C78.7254 89.9964 78.857 89.8733 79.0218 89.7843C79.1865 89.6953 79.3684 89.629 79.5672 89.5854C79.768 89.54 79.9697 89.504 80.1723 89.4775C80.4375 89.4434 80.6525 89.4178 80.8172 89.4008C80.9839 89.3818 81.1051 89.3506 81.1809 89.307C81.2585 89.2635 81.2973 89.1877 81.2973 89.0797V89.057C81.2973 88.7767 81.2206 88.5589 81.0672 88.4036C80.9157 88.2483 80.6856 88.1707 80.3769 88.1707C80.0568 88.1707 79.8059 88.2407 79.624 88.3809C79.4422 88.521 79.3144 88.6707 79.2405 88.8297L78.6042 88.6025C78.7178 88.3373 78.8693 88.1309 79.0587 87.9832C79.25 87.8335 79.4583 87.7294 79.6837 87.6707C79.911 87.61 80.1345 87.5797 80.3542 87.5797C80.4943 87.5797 80.6553 87.5968 80.8371 87.6309C81.0208 87.6631 81.1979 87.7303 81.3684 87.8326C81.5407 87.9349 81.6837 88.0892 81.7973 88.2957C81.911 88.5021 81.9678 88.7786 81.9678 89.1252V92.0002H81.2973V91.4093H81.2633C81.2178 91.504 81.142 91.6053 81.036 91.7133C80.9299 91.8212 80.7888 91.9131 80.6127 91.9888C80.4365 92.0646 80.2216 92.1025 79.9678 92.1025ZM80.0701 91.5002C80.3352 91.5002 80.5587 91.4481 80.7405 91.344C80.9242 91.2398 81.0625 91.1053 81.1553 90.9405C81.25 90.7758 81.2973 90.6025 81.2973 90.4207V89.807C81.2689 89.8411 81.2064 89.8724 81.1098 89.9008C81.0151 89.9273 80.9053 89.951 80.7803 89.9718C80.6572 89.9907 80.5369 90.0078 80.4195 90.0229C80.304 90.0362 80.2102 90.0475 80.1383 90.057C79.964 90.0797 79.8011 90.1167 79.6496 90.1678C79.5 90.2171 79.3788 90.2919 79.286 90.3922C79.1951 90.4907 79.1496 90.6252 79.1496 90.7957C79.1496 91.0286 79.2358 91.2047 79.4081 91.3241C79.5824 91.4415 79.803 91.5002 80.0701 91.5002ZM84.9529 93.7275C84.629 93.7275 84.3506 93.6858 84.1177 93.6025C83.8847 93.521 83.6906 93.4131 83.5353 93.2786C83.3819 93.146 83.2597 93.004 83.1688 92.8525L83.7029 92.4775C83.7635 92.557 83.8402 92.6479 83.933 92.7502C84.0258 92.8544 84.1527 92.9443 84.3137 93.0201C84.4766 93.0977 84.6896 93.1366 84.9529 93.1366C85.3052 93.1366 85.5959 93.0513 85.825 92.8809C86.0542 92.7104 86.1688 92.4434 86.1688 92.0797V91.1934H86.112C86.0627 91.2729 85.9927 91.3714 85.9017 91.4888C85.8127 91.6044 85.6839 91.7076 85.5154 91.7985C85.3487 91.8875 85.1233 91.932 84.8392 91.932C84.487 91.932 84.1707 91.8487 83.8904 91.682C83.612 91.5154 83.3913 91.2729 83.2284 90.9547C83.0675 90.6366 82.987 90.2502 82.987 89.7957C82.987 89.3487 83.0656 88.9595 83.2228 88.628C83.38 88.2947 83.5987 88.0371 83.879 87.8553C84.1593 87.6716 84.4832 87.5797 84.8506 87.5797C85.1347 87.5797 85.3601 87.6271 85.5267 87.7218C85.6953 87.8146 85.8241 87.9207 85.9131 88.04C86.004 88.1574 86.0741 88.254 86.1233 88.3297H86.1915V87.6366H86.8392V92.1252C86.8392 92.5002 86.754 92.8051 86.5836 93.04C86.415 93.2767 86.1877 93.45 85.9017 93.5599C85.6177 93.6716 85.3014 93.7275 84.9529 93.7275ZM84.9302 91.3297C85.1991 91.3297 85.4264 91.2682 85.612 91.1451C85.7976 91.022 85.9387 90.8449 86.0353 90.6138C86.1319 90.3828 86.1802 90.1063 86.1802 89.7843C86.1802 89.4699 86.1328 89.1924 86.0381 88.9519C85.9434 88.7114 85.8033 88.5229 85.6177 88.3866C85.432 88.2502 85.2029 88.182 84.9302 88.182C84.6461 88.182 84.4093 88.254 84.2199 88.3979C84.0324 88.5419 83.8913 88.735 83.7966 88.9775C83.7038 89.2199 83.6574 89.4888 83.6574 89.7843C83.6574 90.0873 83.7048 90.3553 83.7995 90.5883C83.8961 90.8193 84.0381 91.0011 84.2256 91.1337C84.415 91.2644 84.6499 91.3297 84.9302 91.3297ZM89.8961 92.0911C89.4756 92.0911 89.1129 91.9983 88.808 91.8127C88.505 91.6252 88.2711 91.3638 88.1063 91.0286C87.9434 90.6915 87.862 90.2994 87.862 89.8525C87.862 89.4055 87.9434 89.0116 88.1063 88.6707C88.2711 88.3279 88.5002 88.0608 88.7938 87.8695C89.0892 87.6763 89.4339 87.5797 89.8279 87.5797C90.0552 87.5797 90.2796 87.6176 90.5012 87.6934C90.7228 87.7691 90.9245 87.8922 91.1063 88.0627C91.2881 88.2313 91.433 88.4547 91.5409 88.7332C91.6489 89.0116 91.7029 89.3544 91.7029 89.7616V90.0457H88.3392V89.4661H91.0211C91.0211 89.2199 90.9718 89.0002 90.8733 88.807C90.7767 88.6138 90.6385 88.4614 90.4586 88.3496C90.2805 88.2379 90.0703 88.182 89.8279 88.182C89.5608 88.182 89.3298 88.2483 89.1347 88.3809C88.9415 88.5116 88.7928 88.682 88.6887 88.8922C88.5845 89.1025 88.5324 89.3279 88.5324 89.5684V89.9547C88.5324 90.2843 88.5892 90.5636 88.7029 90.7928C88.8184 91.0201 88.9784 91.1934 89.183 91.3127C89.3875 91.4301 89.6252 91.4888 89.8961 91.4888C90.0722 91.4888 90.2313 91.4642 90.3733 91.415C90.5173 91.3638 90.6413 91.2881 90.7455 91.1877C90.8497 91.0854 90.9302 90.9585 90.987 90.807L91.6347 90.9888C91.5665 91.2085 91.4519 91.4017 91.2909 91.5684C91.13 91.7332 90.9311 91.8619 90.6944 91.9547C90.4576 92.0457 90.1915 92.0911 89.8961 92.0911ZM99.7455 88.0002H99.0409C98.9993 87.7975 98.9264 87.6195 98.8222 87.4661C98.7199 87.3127 98.5949 87.1839 98.4472 87.0797C98.3014 86.9737 98.1394 86.8941 97.9614 86.8411C97.7834 86.7881 97.5978 86.7616 97.4046 86.7616C97.0523 86.7616 96.7332 86.8506 96.4472 87.0286C96.1631 87.2066 95.9368 87.469 95.7682 87.8155C95.6016 88.1621 95.5182 88.5873 95.5182 89.0911C95.5182 89.5949 95.6016 90.0201 95.7682 90.3667C95.9368 90.7133 96.1631 90.9756 96.4472 91.1536C96.7332 91.3316 97.0523 91.4207 97.4046 91.4207C97.5978 91.4207 97.7834 91.3941 97.9614 91.3411C98.1394 91.2881 98.3014 91.2095 98.4472 91.1053C98.5949 90.9993 98.7199 90.8695 98.8222 90.7161C98.9264 90.5608 98.9993 90.3828 99.0409 90.182H99.7455C99.6925 90.4794 99.5959 90.7455 99.4557 90.9803C99.3156 91.2152 99.1413 91.415 98.933 91.5797C98.7247 91.7426 98.4908 91.8667 98.2313 91.9519C97.9737 92.0371 97.6981 92.0797 97.4046 92.0797C96.9084 92.0797 96.4671 91.9585 96.0807 91.7161C95.6944 91.4737 95.3904 91.129 95.1688 90.682C94.9472 90.235 94.8364 89.7047 94.8364 89.0911C94.8364 88.4775 94.9472 87.9472 95.1688 87.5002C95.3904 87.0532 95.6944 86.7085 96.0807 86.4661C96.4671 86.2237 96.9084 86.1025 97.4046 86.1025C97.6981 86.1025 97.9737 86.1451 98.2313 86.2303C98.4908 86.3155 98.7247 86.4405 98.933 86.6053C99.1413 86.7682 99.3156 86.9671 99.4557 87.2019C99.5959 87.4349 99.6925 87.701 99.7455 88.0002ZM102.077 92.1025C101.801 92.1025 101.55 92.0504 101.324 91.9462C101.099 91.8402 100.92 91.6877 100.787 91.4888C100.655 91.2881 100.589 91.0457 100.589 90.7616C100.589 90.5116 100.638 90.3089 100.736 90.1536C100.835 89.9964 100.966 89.8733 101.131 89.7843C101.296 89.6953 101.478 89.629 101.677 89.5854C101.877 89.54 102.079 89.504 102.282 89.4775C102.547 89.4434 102.762 89.4178 102.927 89.4008C103.093 89.3818 103.214 89.3506 103.29 89.307C103.368 89.2635 103.407 89.1877 103.407 89.0797V89.057C103.407 88.7767 103.33 88.5589 103.177 88.4036C103.025 88.2483 102.795 88.1707 102.486 88.1707C102.166 88.1707 101.915 88.2407 101.733 88.3809C101.552 88.521 101.424 88.6707 101.35 88.8297L100.714 88.6025C100.827 88.3373 100.979 88.1309 101.168 87.9832C101.359 87.8335 101.568 87.7294 101.793 87.6707C102.02 87.61 102.244 87.5797 102.464 87.5797C102.604 87.5797 102.765 87.5968 102.946 87.6309C103.13 87.6631 103.307 87.7303 103.478 87.8326C103.65 87.9349 103.793 88.0892 103.907 88.2957C104.02 88.5021 104.077 88.7786 104.077 89.1252V92.0002H103.407V91.4093H103.373C103.327 91.504 103.251 91.6053 103.145 91.7133C103.039 91.8212 102.898 91.9131 102.722 91.9888C102.546 92.0646 102.331 92.1025 102.077 92.1025ZM102.179 91.5002C102.445 91.5002 102.668 91.4481 102.85 91.344C103.034 91.2398 103.172 91.1053 103.265 90.9405C103.359 90.7758 103.407 90.6025 103.407 90.4207V89.807C103.378 89.8411 103.316 89.8724 103.219 89.9008C103.125 89.9273 103.015 89.951 102.89 89.9718C102.767 89.9907 102.646 90.0078 102.529 90.0229C102.413 90.0362 102.32 90.0475 102.248 90.057C102.073 90.0797 101.911 90.1167 101.759 90.1678C101.609 90.2171 101.488 90.2919 101.395 90.3922C101.304 90.4907 101.259 90.6252 101.259 90.7957C101.259 91.0286 101.345 91.2047 101.518 91.3241C101.692 91.4415 101.912 91.5002 102.179 91.5002ZM105.301 92.0002V87.6366H105.949V88.2957H105.994C106.074 88.0797 106.218 87.9046 106.426 87.7701C106.634 87.6356 106.869 87.5684 107.13 87.5684C107.18 87.5684 107.241 87.5693 107.315 87.5712C107.389 87.5731 107.445 87.576 107.483 87.5797V88.2616C107.46 88.2559 107.408 88.2474 107.326 88.236C107.247 88.2227 107.163 88.2161 107.074 88.2161C106.861 88.2161 106.672 88.2606 106.505 88.3496C106.341 88.4368 106.21 88.558 106.113 88.7133C106.019 88.8667 105.971 89.0419 105.971 89.2388V92.0002H105.301ZM109.792 92.0911C109.429 92.0911 109.108 91.9993 108.829 91.8155C108.551 91.6299 108.333 91.3686 108.176 91.0314C108.019 90.6924 107.94 90.2919 107.94 89.8297C107.94 89.3714 108.019 88.9737 108.176 88.6366C108.333 88.2994 108.552 88.039 108.832 87.8553C109.112 87.6716 109.436 87.5797 109.804 87.5797C110.088 87.5797 110.312 87.6271 110.477 87.7218C110.644 87.8146 110.771 87.9207 110.858 88.04C110.947 88.1574 111.016 88.254 111.065 88.3297H111.122V86.182H111.792V92.0002H111.145V91.3297H111.065C111.016 91.4093 110.946 91.5097 110.855 91.6309C110.764 91.7502 110.634 91.8572 110.466 91.9519C110.297 92.0447 110.073 92.0911 109.792 92.0911ZM109.883 91.4888C110.152 91.4888 110.379 91.4188 110.565 91.2786C110.751 91.1366 110.892 90.9405 110.988 90.6905C111.085 90.4386 111.133 90.1479 111.133 89.8184C111.133 89.4926 111.086 89.2076 110.991 88.9633C110.897 88.7171 110.756 88.5258 110.571 88.3894C110.385 88.2511 110.156 88.182 109.883 88.182C109.599 88.182 109.362 88.2549 109.173 88.4008C108.986 88.5447 108.844 88.7407 108.75 88.9888C108.657 89.235 108.611 89.5116 108.611 89.8184C108.611 90.129 108.658 90.4112 108.753 90.665C108.849 90.9169 108.991 91.1176 109.179 91.2672C109.368 91.415 109.603 91.4888 109.883 91.4888Z" fill="#986565"/>
        <path d="M53.3861 98.8066V98.1816H57.7498V98.8066H55.9202V104H55.2157V98.8066H53.3861ZM59.9429 104.091C59.5225 104.091 59.1598 103.998 58.8549 103.812C58.5518 103.625 58.3179 103.364 58.1532 103.028C57.9903 102.691 57.9088 102.299 57.9088 101.852C57.9088 101.405 57.9903 101.011 58.1532 100.67C58.3179 100.328 58.5471 100.061 58.8407 99.8691C59.1361 99.6759 59.4808 99.5793 59.8748 99.5793C60.102 99.5793 60.3265 99.6172 60.5481 99.693C60.7696 99.7687 60.9713 99.8918 61.1532 100.062C61.335 100.231 61.4799 100.455 61.5878 100.733C61.6958 101.011 61.7498 101.354 61.7498 101.761V102.045H58.3861V101.466H61.0679C61.0679 101.22 61.0187 101 60.9202 100.807C60.8236 100.614 60.6854 100.461 60.5054 100.349C60.3274 100.238 60.1172 100.182 59.8748 100.182C59.6077 100.182 59.3766 100.248 59.1816 100.381C58.9884 100.511 58.8397 100.682 58.7356 100.892C58.6314 101.102 58.5793 101.328 58.5793 101.568V101.955C58.5793 102.284 58.6361 102.563 58.7498 102.793C58.8653 103.02 59.0253 103.193 59.2299 103.312C59.4344 103.43 59.6721 103.489 59.9429 103.489C60.1191 103.489 60.2782 103.464 60.4202 103.415C60.5641 103.364 60.6882 103.288 60.7924 103.188C60.8965 103.085 60.977 102.958 61.0338 102.807L61.6816 102.989C61.6134 103.208 61.4988 103.402 61.3378 103.568C61.1768 103.733 60.978 103.862 60.7412 103.955C60.5045 104.045 60.2384 104.091 59.9429 104.091ZM63.1525 99.6362L64.1979 101.42L65.2434 99.6362H66.0161L64.607 101.818L66.0161 104H65.2434L64.1979 102.307L63.1525 104H62.3797L63.7661 101.818L62.3797 99.6362H63.1525ZM68.8705 99.6362V100.205H66.6091V99.6362H68.8705ZM67.2682 98.5907H67.9387V102.75C67.9387 102.939 67.9661 103.081 68.0211 103.176C68.0779 103.269 68.1499 103.331 68.237 103.364C68.326 103.394 68.4197 103.409 68.5182 103.409C68.5921 103.409 68.6527 103.405 68.7 103.398C68.7474 103.388 68.7853 103.381 68.8137 103.375L68.95 103.977C68.9046 103.994 68.8411 104.011 68.7597 104.028C68.6783 104.047 68.575 104.057 68.45 104.057C68.2606 104.057 68.075 104.016 67.8932 103.935C67.7133 103.853 67.5637 103.729 67.4444 103.562C67.3269 103.396 67.2682 103.186 67.2682 102.932V98.5907ZM71.9017 98.8066V98.1816H76.2654V98.8066H74.4358V104H73.7313V98.8066H71.9017ZM78.4586 104.091C78.0381 104.091 77.6754 103.998 77.3705 103.812C77.0675 103.625 76.8336 103.364 76.6688 103.028C76.5059 102.691 76.4245 102.299 76.4245 101.852C76.4245 101.405 76.5059 101.011 76.6688 100.67C76.8336 100.328 77.0627 100.061 77.3563 99.8691C77.6517 99.6759 77.9964 99.5793 78.3904 99.5793C78.6177 99.5793 78.8421 99.6172 79.0637 99.693C79.2853 99.7687 79.487 99.8918 79.6688 100.062C79.8506 100.231 79.9955 100.455 80.1034 100.733C80.2114 101.011 80.2654 101.354 80.2654 101.761V102.045H76.9017V101.466H79.5836C79.5836 101.22 79.5343 101 79.4358 100.807C79.3392 100.614 79.201 100.461 79.0211 100.349C78.843 100.238 78.6328 100.182 78.3904 100.182C78.1233 100.182 77.8923 100.248 77.6972 100.381C77.504 100.511 77.3553 100.682 77.2512 100.892C77.147 101.102 77.0949 101.328 77.0949 101.568V101.955C77.0949 102.284 77.1517 102.563 77.2654 102.793C77.3809 103.02 77.5409 103.193 77.7455 103.312C77.95 103.43 78.1877 103.489 78.4586 103.489C78.6347 103.489 78.7938 103.464 78.9358 103.415C79.0798 103.364 79.2038 103.288 79.308 103.188C79.4122 103.085 79.4927 102.958 79.5495 102.807L80.1972 102.989C80.129 103.208 80.0144 103.402 79.8534 103.568C79.6925 103.733 79.4936 103.862 79.2569 103.955C79.0201 104.045 78.754 104.091 78.4586 104.091ZM81.6681 99.6362L82.7135 101.42L83.759 99.6362H84.5317L83.1226 101.818L84.5317 104H83.759L82.7135 102.307L81.6681 104H80.8954L82.2817 101.818L80.8954 99.6362H81.6681ZM87.3861 99.6362V100.205H85.1248V99.6362H87.3861ZM85.7838 98.5907H86.4543V102.75C86.4543 102.939 86.4818 103.081 86.5367 103.176C86.5935 103.269 86.6655 103.331 86.7526 103.364C86.8416 103.394 86.9354 103.409 87.0338 103.409C87.1077 103.409 87.1683 103.405 87.2157 103.398C87.263 103.388 87.3009 103.381 87.3293 103.375L87.4657 103.977C87.4202 103.994 87.3568 104.011 87.2753 104.028C87.1939 104.047 87.0907 104.057 86.9657 104.057C86.7763 104.057 86.5907 104.016 86.4088 103.935C86.2289 103.853 86.0793 103.729 85.96 103.562C85.8426 103.396 85.7838 103.186 85.7838 102.932V98.5907ZM90.4174 98.8066V98.1816H94.781V98.8066H92.9515V104H92.2469V98.8066H90.4174ZM96.9742 104.091C96.5537 104.091 96.191 103.998 95.8861 103.812C95.5831 103.625 95.3492 103.364 95.1844 103.028C95.0215 102.691 94.9401 102.299 94.9401 101.852C94.9401 101.405 95.0215 101.011 95.1844 100.67C95.3492 100.328 95.5784 100.061 95.8719 99.8691C96.1674 99.6759 96.5121 99.5793 96.906 99.5793C97.1333 99.5793 97.3577 99.6172 97.5793 99.693C97.8009 99.7687 98.0026 99.8918 98.1844 100.062C98.3662 100.231 98.5111 100.455 98.6191 100.733C98.727 101.011 98.781 101.354 98.781 101.761V102.045H95.4174V101.466H98.0992C98.0992 101.22 98.0499 101 97.9515 100.807C97.8549 100.614 97.7166 100.461 97.5367 100.349C97.3587 100.238 97.1484 100.182 96.906 100.182C96.639 100.182 96.4079 100.248 96.2128 100.381C96.0196 100.511 95.871 100.682 95.7668 100.892C95.6626 101.102 95.6106 101.328 95.6106 101.568V101.955C95.6106 102.284 95.6674 102.563 95.781 102.793C95.8965 103.02 96.0566 103.193 96.2611 103.312C96.4657 103.43 96.7034 103.489 96.9742 103.489C97.1503 103.489 97.3094 103.464 97.4515 103.415C97.5954 103.364 97.7195 103.288 97.8236 103.188C97.9278 103.085 98.0083 102.958 98.0651 102.807L98.7128 102.989C98.6446 103.208 98.5301 103.402 98.3691 103.568C98.2081 103.733 98.0092 103.862 97.7725 103.955C97.5357 104.045 97.2696 104.091 96.9742 104.091ZM100.184 99.6362L101.229 101.42L102.275 99.6362H103.047L101.638 101.818L103.047 104H102.275L101.229 102.307L100.184 104H99.411L100.797 101.818L99.411 99.6362H100.184ZM105.902 99.6362V100.205H103.64V99.6362H105.902ZM104.299 98.5907H104.97V102.75C104.97 102.939 104.997 103.081 105.052 103.176C105.109 103.269 105.181 103.331 105.268 103.364C105.357 103.394 105.451 103.409 105.549 103.409C105.623 103.409 105.684 103.405 105.731 103.398C105.779 103.388 105.817 103.381 105.845 103.375L105.981 103.977C105.936 103.994 105.872 104.011 105.791 104.028C105.71 104.047 105.606 104.057 105.481 104.057C105.292 104.057 105.106 104.016 104.924 103.935C104.745 103.853 104.595 103.729 104.476 103.562C104.358 103.396 104.299 103.186 104.299 102.932V98.5907ZM108.933 98.8066V98.1816H113.297V98.8066H111.467V104H110.763V98.8066H108.933ZM115.49 104.091C115.069 104.091 114.707 103.998 114.402 103.812C114.099 103.625 113.865 103.364 113.7 103.028C113.537 102.691 113.456 102.299 113.456 101.852C113.456 101.405 113.537 101.011 113.7 100.67C113.865 100.328 114.094 100.061 114.388 99.8691C114.683 99.6759 115.028 99.5793 115.422 99.5793C115.649 99.5793 115.873 99.6172 116.095 99.693C116.317 99.7687 116.518 99.8918 116.7 100.062C116.882 100.231 117.027 100.455 117.135 100.733C117.243 101.011 117.297 101.354 117.297 101.761V102.045H113.933V101.466H116.615C116.615 101.22 116.566 101 116.467 100.807C116.37 100.614 116.232 100.461 116.052 100.349C115.874 100.238 115.664 100.182 115.422 100.182C115.155 100.182 114.924 100.248 114.728 100.381C114.535 100.511 114.387 100.682 114.282 100.892C114.178 101.102 114.126 101.328 114.126 101.568V101.955C114.126 102.284 114.183 102.563 114.297 102.793C114.412 103.02 114.572 103.193 114.777 103.312C114.981 103.43 115.219 103.489 115.49 103.489C115.666 103.489 115.825 103.464 115.967 103.415C116.111 103.364 116.235 103.288 116.339 103.188C116.443 103.085 116.524 102.958 116.581 102.807L117.228 102.989C117.16 103.208 117.046 103.402 116.885 103.568C116.724 103.733 116.525 103.862 116.288 103.955C116.051 104.045 115.785 104.091 115.49 104.091ZM118.699 99.6362L119.745 101.42L120.79 99.6362H121.563L120.154 101.818L121.563 104H120.79L119.745 102.307L118.699 104H117.927L119.313 101.818L117.927 99.6362H118.699ZM124.417 99.6362V100.205H122.156V99.6362H124.417ZM122.815 98.5907H123.486V102.75C123.486 102.939 123.513 103.081 123.568 103.176C123.625 103.269 123.697 103.331 123.784 103.364C123.873 103.394 123.967 103.409 124.065 103.409C124.139 103.409 124.2 103.405 124.247 103.398C124.294 103.388 124.332 103.381 124.361 103.375L124.497 103.977C124.451 103.994 124.388 104.011 124.307 104.028C124.225 104.047 124.122 104.057 123.997 104.057C123.808 104.057 123.622 104.016 123.44 103.935C123.26 103.853 123.111 103.729 122.991 103.562C122.874 103.396 122.815 103.186 122.815 102.932V98.5907Z" fill="#986565"/>
        <path d="M75 112C75 111.448 75.4477 111 76 111H104C104.552 111 105 111.448 105 112V117C105 117.552 104.552 118 104 118H76C75.4477 118 75 117.552 75 117V112Z" fill="#6E4242"/>
        <path d="M89.0198 113.5H88.7556C88.74 113.424 88.7127 113.357 88.6736 113.3C88.6352 113.242 88.5884 113.194 88.533 113.155C88.4783 113.115 88.4176 113.085 88.3508 113.065C88.284 113.045 88.2144 113.036 88.142 113.036C88.0099 113.036 87.8902 113.069 87.783 113.136C87.6764 113.202 87.5916 113.301 87.5283 113.431C87.4658 113.561 87.4346 113.72 87.4346 113.909C87.4346 114.098 87.4658 114.257 87.5283 114.387C87.5916 114.517 87.6764 114.616 87.783 114.683C87.8902 114.749 88.0099 114.783 88.142 114.783C88.2144 114.783 88.284 114.773 88.3508 114.753C88.4176 114.733 88.4783 114.703 88.533 114.664C88.5884 114.625 88.6352 114.576 88.6736 114.518C88.7127 114.46 88.74 114.393 88.7556 114.318H89.0198C88.9999 114.43 88.9637 114.529 88.9112 114.618C88.8586 114.706 88.7933 114.781 88.7151 114.842C88.637 114.903 88.5493 114.95 88.452 114.982C88.3554 115.014 88.2521 115.03 88.142 115.03C87.9559 115.03 87.7904 114.984 87.6455 114.893C87.5006 114.803 87.3867 114.673 87.3036 114.506C87.2205 114.338 87.1789 114.139 87.1789 113.909C87.1789 113.679 87.2205 113.48 87.3036 113.312C87.3867 113.145 87.5006 113.016 87.6455 112.925C87.7904 112.834 87.9559 112.788 88.142 112.788C88.2521 112.788 88.3554 112.804 88.452 112.836C88.5493 112.868 88.637 112.915 88.7151 112.977C88.7933 113.038 88.8586 113.113 88.9112 113.201C88.9637 113.288 88.9999 113.388 89.0198 113.5ZM89.6641 112.818V115H89.4127V112.818H89.6641ZM90.1246 115V113.364H90.376V115H90.1246ZM90.2524 113.091C90.2034 113.091 90.1612 113.074 90.1256 113.041C90.0908 113.007 90.0734 112.967 90.0734 112.92C90.0734 112.874 90.0908 112.833 90.1256 112.8C90.1612 112.767 90.2034 112.75 90.2524 112.75C90.3014 112.75 90.3433 112.767 90.3781 112.8C90.4136 112.833 90.4314 112.874 90.4314 112.92C90.4314 112.967 90.4136 113.007 90.3781 113.041C90.3433 113.074 90.3014 113.091 90.2524 113.091ZM91.5013 115.034C91.3479 115.034 91.2158 114.998 91.105 114.925C90.9942 114.853 90.9089 114.753 90.8493 114.626C90.7896 114.499 90.7598 114.354 90.7598 114.19C90.7598 114.024 90.7903 113.877 90.8514 113.75C90.9132 113.623 90.9991 113.523 91.1092 113.451C91.22 113.379 91.3493 113.342 91.497 113.342C91.6121 113.342 91.7158 113.364 91.8081 113.406C91.9004 113.449 91.9761 113.509 92.035 113.585C92.094 113.662 92.1305 113.751 92.1447 113.854H91.8933C91.8741 113.779 91.8315 113.713 91.7655 113.656C91.7001 113.597 91.6121 113.568 91.5013 113.568C91.4033 113.568 91.3173 113.594 91.2435 113.645C91.1703 113.695 91.1131 113.767 91.0719 113.859C91.0315 113.951 91.0112 114.058 91.0112 114.182C91.0112 114.308 91.0311 114.418 91.0709 114.512C91.1114 114.606 91.1682 114.679 91.2413 114.73C91.3152 114.782 91.4018 114.808 91.5013 114.808C91.5666 114.808 91.6259 114.797 91.6792 114.774C91.7324 114.751 91.7775 114.719 91.8145 114.676C91.8514 114.634 91.8777 114.582 91.8933 114.523H92.1447C92.1305 114.619 92.0954 114.706 92.0393 114.784C91.9839 114.86 91.9104 114.922 91.8187 114.967C91.7278 115.012 91.622 115.034 91.5013 115.034ZM92.7467 114.403L92.7424 114.092H92.7935L93.5094 113.364H93.8205L93.0577 114.135H93.0364L92.7467 114.403ZM92.5123 115V112.818H92.7637V115H92.5123ZM93.5521 115L92.9128 114.19L93.0918 114.016L93.8717 115H93.5521Z" fill="#F5F4F4"/>
        <path d="M102.494 57.0106V36.6883C102.494 35.0916 101.188 33.7852 99.5909 33.7852H79.2687C77.6719 33.7852 76.3655 35.0916 76.3655 36.6883V57.0106C76.3655 58.6073 77.6719 59.9138 79.2687 59.9138H99.5909C101.188 59.9138 102.494 58.6073 102.494 57.0106ZM84.3492 49.0268L87.9782 53.3961L93.0588 46.8495L99.5909 55.559H79.2687L84.3492 49.0268Z" fill="#341617"/>
        </g>
        <defs>
        <clipPath id="clip0_2324_239">
        <rect width="171" height="144" fill="white"/>
        </clipPath>
        </defs>
        </svg> -->

        <svg xmlns="http://www.w3.org/2000/svg" width="100%" height="100%" viewBox="0 0 216 182" fill="none">
  <path d="M206 0H10C4.47715 0 0 4.47715 0 10V172C0 177.523 4.47715 182 10 182H206C211.523 182 216 177.523 216 172V10C216 4.47715 211.523 0 206 0Z" fill="#341717"/>
  <path d="M166 23H59C52.9249 23 48 27.9249 48 34V149C48 155.075 52.9249 160 59 160H166C172.075 160 177 155.075 177 149V34C177 27.9249 172.075 23 166 23Z" fill="#3B1C1C"/>
  <path d="M172 23H53C50.2386 23 48 25.2386 48 28V86C48 88.7614 50.2386 91 53 91H172C174.761 91 177 88.7614 177 86V28C177 25.2386 174.761 23 172 23Z" fill="#411F1F"/>
  <path opacity="0.502" d="M113.83 66.3207C113.653 66.3209 113.48 66.2746 113.327 66.1865C113.174 66.0984 113.047 65.9716 112.958 65.8187C112.87 65.6659 112.823 65.4925 112.823 65.3159C112.823 65.1393 112.869 64.9657 112.957 64.8127L117.462 56.9897C117.557 56.8248 117.694 56.6879 117.859 56.5927C118.024 56.4974 118.211 56.4473 118.401 56.4473C118.591 56.4473 118.778 56.4974 118.943 56.5927C119.108 56.6879 119.245 56.8248 119.34 56.9897L124.577 66.0367C124.593 66.0645 124.602 66.0961 124.602 66.1282C124.602 66.1604 124.593 66.192 124.577 66.2198C124.561 66.2477 124.538 66.2709 124.51 66.287C124.483 66.3032 124.451 66.3117 124.419 66.3117L113.83 66.3207Z" fill="#AD7474"/>
  <path opacity="0.403" d="M100.423 66.0618L108.204 52.5478C108.299 52.3831 108.436 52.2464 108.601 52.1514C108.766 52.0564 108.953 52.0063 109.143 52.0063C109.333 52.0063 109.52 52.0564 109.685 52.1514C109.85 52.2464 109.987 52.3831 110.082 52.5478L118.053 66.3177L100.581 66.3378C100.549 66.3378 100.517 66.3294 100.49 66.3134C100.462 66.2974 100.439 66.2744 100.423 66.2466C100.406 66.2189 100.398 66.1873 100.398 66.1552C100.398 66.1231 100.406 66.0916 100.422 66.0638" fill="#DDAAA6"/>
  <path opacity="0.571" d="M115.342 49.8919C115.343 50.4951 115.522 51.0845 115.858 51.5856C116.194 52.0867 116.671 52.477 117.228 52.7072C117.786 52.9373 118.399 52.997 118.991 52.8786C119.582 52.7602 120.125 52.4691 120.551 52.0421C120.977 51.6151 121.267 51.0713 121.384 50.4796C121.501 49.8879 121.44 49.2747 121.209 48.7177C120.977 48.1607 120.586 47.6848 120.084 47.3502C119.582 47.0156 118.992 46.8373 118.389 46.8379C117.988 46.8383 117.592 46.9176 117.222 47.0713C116.852 47.225 116.516 47.4501 116.233 47.7337C115.95 48.0173 115.726 48.3539 115.573 48.7242C115.42 49.0945 115.342 49.4913 115.342 49.8919Z" fill="#AD7474"/>
  <path d="M79.451 113H145.551" stroke="#482323" stroke-width="5" stroke-linecap="round"/>
  <path d="M79.451 124H145.551" stroke="#482323" stroke-width="5" stroke-linecap="round"/>
  <path d="M79.451 135H113.474" stroke="#482323" stroke-width="5" stroke-linecap="round"/>
  <path d="M120.287 135H124.6" stroke="#482323" stroke-width="5" stroke-linecap="round"/>
  <path d="M131.093 135H144.999" stroke="#482323" stroke-width="5" stroke-linecap="round"/>
        <defs>
        <clipPath id="clip0_2324_239">
        <rect width="171" height="144" fill="white"/>
        </clipPath>
        </defs>
</svg>