<svg width="100%" height="100%" viewBox="0 0 173 144" fill="none" xmlns="http://www.w3.org/2000/svg">
<g clip-path="url(#clip0_2459_4252)">
<path opacity="0.738866" d="M-0.000244141 10C-0.000244141 4.47715 4.47691 0 9.99976 0H163C168.523 0 173 4.47715 173 10V134C173 139.523 168.523 144 163 144H9.99975C4.47691 144 -0.000244141 139.523 -0.000244141 134V10Z" fill="#341717"/>
<path d="M62.5422 49.0226V59.5797H67.8207V49.0226H78.3778V43.7441H67.8207C64.9176 43.7441 62.5422 46.1195 62.5422 49.0226ZM67.8207 75.4152H62.5422V85.9722C62.5422 88.8754 64.9176 91.2507 67.8207 91.2507H78.3778V85.9722H67.8207V75.4152ZM104.77 85.9722H94.2133V91.2507H104.77C107.673 91.2507 110.049 88.8754 110.049 85.9722V75.4152H104.77V85.9722ZM104.77 43.7441H94.2133V49.0226H104.77V59.5797H110.049V49.0226C110.049 46.1195 107.673 43.7441 104.77 43.7441Z" fill="#7B4241"/>
<path d="M93.4746 65.9254H88.7624V61.2132C88.7624 60.6349 88.2935 60.166 87.7153 60.166H86.6681C86.0899 60.166 85.6209 60.6349 85.6209 61.2132V65.9254H80.9087C80.3305 65.9254 79.8616 66.3943 79.8616 66.9726V68.0197C79.8616 68.5979 80.3305 69.0669 80.9087 69.0669H85.6209V73.7791C85.6209 74.3573 86.0899 74.8263 86.6681 74.8263H87.7153C88.2935 74.8263 88.7624 74.3573 88.7624 73.7791V69.0669H93.4746C94.0529 69.0669 94.5218 68.5979 94.5218 68.0197V66.9726C94.5218 66.3943 94.0529 65.9254 93.4746 65.9254Z" fill="#7B4241"/>
</g>
<defs>
<clipPath id="clip0_2459_4252">
<rect width="173" height="144" fill="white"/>
</clipPath>
</defs>
</svg>
