<svg width="100%" height="100%" viewBox="0 0 216 182" fill="none" xmlns="http://www.w3.org/2000/svg">
<path opacity="0.739" d="M206 0H10C4.47715 0 0 4.47715 0 10V172C0 177.523 4.47715 182 10 182H206C211.523 182 216 177.523 216 172V10C216 4.47715 211.523 0 206 0Z" fill="#341717"/>
<path d="M114.999 56.499H100.999C100.723 56.499 100.499 56.7229 100.499 56.999V71.999C100.499 72.2752 100.723 72.499 100.999 72.499H114.999C115.275 72.499 115.499 72.2752 115.499 71.999V56.999C115.499 56.7229 115.275 56.499 114.999 56.499Z" stroke="#7B4241" stroke-width="3"/>
<path d="M114.999 78.5H100.999C100.723 78.5 100.499 78.7239 100.499 79V93C100.499 93.2761 100.723 93.5 100.999 93.5H114.999C115.275 93.5 115.499 93.2761 115.499 93V79C115.499 78.7239 115.275 78.5 114.999 78.5Z" stroke="#7B4241" stroke-width="3"/>
<path d="M136.999 56.499H122.999C122.723 56.499 122.499 56.7229 122.499 56.999V71.999C122.499 72.2752 122.723 72.499 122.999 72.499H136.999C137.275 72.499 137.499 72.2752 137.499 71.999V56.999C137.499 56.7229 137.275 56.499 136.999 56.499Z" stroke="#7B4241" stroke-width="3"/>
<path d="M136.999 78.5H122.999C122.723 78.5 122.499 78.7239 122.499 79V93C122.499 93.2761 122.723 93.5 122.999 93.5H136.999C137.275 93.5 137.499 93.2761 137.499 93V79C137.499 78.7239 137.275 78.5 136.999 78.5Z" stroke="#7B4241" stroke-width="3"/>
<path d="M114.999 99.4995H100.999C100.723 99.4995 100.499 99.7234 100.499 99.9995V115C100.499 115.276 100.723 115.5 100.999 115.5H114.999C115.275 115.5 115.499 115.276 115.499 115V99.9995C115.499 99.7234 115.275 99.4995 114.999 99.4995Z" stroke="#7B4241" stroke-width="3"/>
<path d="M136.999 99.4995H122.999C122.723 99.4995 122.499 99.7234 122.499 99.9995V115C122.499 115.276 122.723 115.5 122.999 115.5H136.999C137.275 115.5 137.499 115.276 137.499 115V99.9995C137.499 99.7234 137.275 99.4995 136.999 99.4995Z" stroke="#7B4241" stroke-width="3"/>
<path d="M93 99.4995H79C78.7239 99.4995 78.5 99.7234 78.5 99.9995V115C78.5 115.276 78.7239 115.5 79 115.5H93C93.2761 115.5 93.5 115.276 93.5 115V99.9995C93.5 99.7234 93.2761 99.4995 93 99.4995Z" stroke="#7B4241" stroke-width="3"/>
<path d="M93 77.4995H79C78.7239 77.4995 78.5 77.7234 78.5 77.9995V92.9995C78.5 93.2757 78.7239 93.4995 79 93.4995H93C93.2761 93.4995 93.5 93.2757 93.5 92.9995V77.9995C93.5 77.7234 93.2761 77.4995 93 77.4995Z" stroke="#7B4241" stroke-width="3"/>
<path d="M93 56.5H79C78.7239 56.5 78.5 56.7239 78.5 57V72C78.5 72.2761 78.7239 72.5 79 72.5H93C93.2761 72.5 93.5 72.2761 93.5 72V57C93.5 56.7239 93.2761 56.5 93 56.5Z" stroke="#7B4241" stroke-width="3"/>
</svg>

