<svg width="13" height="14" viewBox="0 0 13 14" fill="none" xmlns="http://www.w3.org/2000/svg">
<path id="Icon ionic-md-search" d="M9.06095 8.668H8.49695L8.28495 8.491C8.99041 7.64961 9.37765 6.58701 9.37895 5.489C9.37222 4.58669 9.0983 3.7066 8.59175 2.95985C8.08522 2.2131 7.36877 1.63318 6.53289 1.29331C5.69701 0.953434 4.77916 0.86885 3.89524 1.05023C3.01132 1.23162 2.20096 1.67083 1.56648 2.31243C0.931992 2.95403 0.501836 3.76923 0.330318 4.65512C0.1588 5.54101 0.253612 6.45786 0.602782 7.2899C0.951953 8.12194 1.53982 8.83187 2.29217 9.33006C3.04452 9.82824 3.92761 10.0923 4.82995 10.089C5.92733 10.0818 6.98799 9.69286 7.82995 8.989L8.04095 9.166V9.732L11.5669 13.268L12.6249 12.207L9.06095 8.668ZM4.82995 8.668C4.19981 8.66998 3.58328 8.48488 3.05843 8.13616C2.53359 7.78744 2.12406 7.29078 1.88173 6.7091C1.6394 6.12743 1.57518 5.48692 1.69718 4.86871C1.81919 4.2505 2.12195 3.68242 2.5671 3.23642C3.01225 2.79043 3.57976 2.4866 4.19774 2.36342C4.81572 2.24025 5.45635 2.30326 6.03848 2.5445C6.62061 2.78573 7.11804 3.19432 7.46776 3.7185C7.81747 4.24268 8.00373 4.85887 8.00295 5.489C8.00479 5.90649 7.92403 6.32021 7.7653 6.70635C7.60657 7.09248 7.37301 7.4434 7.07808 7.73889C6.78315 8.03438 6.43268 8.2686 6.04684 8.42805C5.661 8.58751 5.24743 8.66906 4.82995 8.668Z" fill="#B16D6D"/>
</svg>
