<!-- <svg xmlns="http://www.w3.org/2000/svg" width="100%" height="100%" viewBox="0 0 173 144" fill="none">
  <g clip-path="url(#clip0_2324_355)">
    <path opacity="0.738866" d="M-0.000244141 10C-0.000244141 4.47715 4.47691 0 9.99976 0H163C168.523 0 173 4.47715 173 10V134C173 139.523 168.523 144 163 144H9.99975C4.47691 144 -0.000244141 139.523 -0.000244141 134V10Z" fill="#341717"/>
    <path d="M96.8795 76.3497L79.9042 66.5488C77.822 65.3443 75.1561 66.0587 73.9539 68.1409C72.7516 70.2252 73.466 72.8889 75.5482 74.0912L92.5213 83.8922C94.6056 85.0966 97.2693 84.3822 98.4716 82.2979C99.6782 80.2157 98.9639 77.552 96.8795 76.3497ZM82.8792 65.7516L96.0823 73.3746L100.573 60.8772L91.4562 55.6152L82.8792 65.7516ZM73.1458 97.8553L85.776 82.5135L80.1175 79.2465L73.1458 97.8553ZM106.029 53.9665L94.7145 47.4325C93.1507 46.5308 91.1535 47.0644 90.2518 48.6282C89.348 50.192 89.8859 52.1892 91.4475 53.0909L102.764 59.6249C104.328 60.5266 106.325 59.993 107.227 58.4292C108.129 56.8654 107.593 54.8682 106.029 53.9665Z" fill="#5C2A2B"/>
  </g>
  <defs>
    <clipPath id="clip0_2324_355">
      <rect width="173" height="144" fill="white"/>
    </clipPath>
  </defs>
</svg> -->
<svg xmlns="http://www.w3.org/2000/svg" width="100%" height="100%" viewBox="0 0 218 182" fill="none">
  <path d="M208 0H10C4.47715 0 0 4.47715 0 10V172C0 177.523 4.47715 182 10 182H208C213.523 182 218 177.523 218 172V10C218 4.47715 213.523 0 208 0Z" fill="#341717"/>
  <mask id="mask0_2556_641" style="mask-type:luminance" maskUnits="userSpaceOnUse" x="81" y="55" width="66" height="66">
    <path d="M146.78 55.3208H81.0959V121H146.78V55.3208Z" fill="white"/>
  </mask>
  <g mask="url(#mask0_2556_641)">
    <path d="M145.769 73.9468C140.928 69.1181 136.094 64.2821 131.269 59.4388C130.118 58.2908 128.996 57.1128 127.796 56.0178C127.556 55.7862 127.272 55.6052 126.961 55.4857C126.65 55.3662 126.318 55.3107 125.985 55.3223C125.652 55.334 125.325 55.4127 125.023 55.5536C124.721 55.6946 124.451 55.895 124.228 56.1428C123.775 56.6086 123.521 57.2318 123.519 57.8814C123.517 58.5309 123.766 59.1559 124.216 59.6248C124.517 59.9861 124.849 60.3207 125.208 60.6248C125.797 61.1068 125.864 61.4378 125.2 61.9918C119.23 66.9758 113.281 71.9851 107.353 77.0198L105.953 77.1698L105.912 77.1458C103.936 75.9627 101.676 75.3405 99.3729 75.3458C96.2913 75.3655 93.319 76.49 90.9959 78.5148C89.1679 80.0898 89.1049 81.4748 90.7909 83.1648C94.5909 86.9768 98.3909 90.7988 102.228 94.5738C102.899 95.2338 102.945 95.5738 102.245 96.2678C97.6199 100.825 93.0429 105.436 88.4499 110.025C86.2739 112.206 84.0789 114.363 81.9329 116.569C81.6768 116.798 81.4705 117.078 81.3268 117.391C81.183 117.703 81.1047 118.042 81.0969 118.386C81.089 118.729 81.1516 119.071 81.281 119.39C81.4103 119.709 81.6036 119.998 81.8489 120.239C82.09 120.482 82.3775 120.675 82.6944 120.806C83.0113 120.937 83.3512 121.003 83.6939 121C84.0367 120.997 84.3754 120.925 84.6901 120.789C85.0047 120.653 85.2889 120.455 85.5259 120.208C85.8129 119.953 86.0759 119.67 86.3479 119.399C92.8146 112.932 99.2766 106.459 105.734 99.9808C106.46 99.2478 106.834 99.1518 107.612 99.9458C111.373 103.799 115.203 107.586 119.012 111.387C120.596 112.965 122.005 112.906 123.496 111.225C125.271 109.262 126.386 106.791 126.684 104.162C126.981 101.532 126.446 98.8746 125.154 96.5648C124.906 96.2392 124.793 95.8302 124.839 95.4234C124.885 95.0166 125.087 94.6434 125.402 94.3818C130.22 88.7191 135.007 83.0304 139.764 77.3158C140.573 76.3378 141.064 76.2358 141.844 77.2468C142.118 77.6866 142.507 78.0429 142.969 78.2768C143.432 78.5108 143.949 78.6135 144.466 78.5738C144.962 78.5369 145.435 78.3507 145.823 78.0395C146.211 77.7283 146.495 77.3069 146.639 76.8308C146.803 76.3186 146.808 75.7686 146.653 75.2536C146.498 74.7386 146.19 74.2829 145.77 73.9468" fill="#3E1F1F"/>
  </g>
  <defs>
    <clipPath id="clip0_2324_355">
      <rect width="173" height="144" fill="white"/>
    </clipPath>
  </defs>
</svg>