<svg xmlns="http://www.w3.org/2000/svg" width="25" height="58" viewBox="0 0 25 58" fill="none">
  <path d="M18 0H7C3.13401 0 0 3.13401 0 7V51C0 54.866 3.13401 58 7 58H18C21.866 58 25 54.866 25 51V7C25 3.13401 21.866 0 18 0Z" fill="#2B1313"/>
  <path d="M16.3543 28.7405L19.7839 31.9357C19.8442 31.9916 19.8928 32.0589 19.927 32.1337C19.9613 32.2085 19.9804 32.2893 19.9832 32.3715C19.9861 32.4537 19.9727 32.5357 19.9438 32.6127C19.9149 32.6897 19.871 32.7602 19.8147 32.8202C19.7006 32.941 19.5435 33.012 19.3774 33.0178C19.2113 33.0236 19.0496 32.9637 18.9273 32.8512L15.0376 29.2307C14.9202 29.1207 14.8497 28.9696 14.8407 28.8089C14.8318 28.6483 14.885 28.4903 14.9894 28.3679L18.6311 24.4544C18.7452 24.3368 18.9009 24.2686 19.0648 24.2644C19.2287 24.2601 19.3877 24.3203 19.5078 24.4319C19.6278 24.5435 19.6994 24.6976 19.7072 24.8614C19.715 25.0251 19.6584 25.1854 19.5494 25.3079L16.3543 28.7405Z" fill="#C4C4C4"/>
</svg>