<!-- <svg xmlns="http://www.w3.org/2000/svg" width="100%" height="100%" viewBox="0 0 171 144" fill="none">
        <g clip-path="url(#clip0_2324_276)">
        <path d="M134 -0.000488281C139.523 -0.000488281 144 4.47667 144 9.99952L144 163C144 168.523 139.523 173 134 173L10 173C4.47701 173 0 168.523 0 163L0 9.99951C0 4.47667 4.47701 -0.000488281 10 -0.000488281L134 -0.000488281Z" fill="#341717"/>
        <path d="M139 69C141.761 69 144 71.2385 144 74L144 166C144 168.761 141.761 171 139 171H5C2.239 171 0 168.761 0 166L0 74C0 71.2385 2.239 69 5 69L139 69Z" fill="#452121"/>
        <path d="M139 -0.000488281C141.761 -0.000488281 144 2.23809 144 4.99952V81.9996C144 93.0452 135.046 102 124 102L5 102C2.239 102 0 99.761 0 96.9996L0 19.9996C0 8.95382 8.95399 -0.000488281 20 -0.000488281L139 -0.000488281Z" fill="#6E4242"/>
        </g>
        <defs>
        <clipPath id="clip0_2324_276">
        <rect width="171" height="144" fill="white" transform="matrix(0 1 -1 0 144 0)"/>
        </clipPath>
        </defs>
        </svg> -->
<svg xmlns="http://www.w3.org/2000/svg" width="100%" height="100%" viewBox="0 0 217 182" fill="none">
  <path d="M207 0H10C4.47715 0 0 4.47715 0 10V172C0 177.523 4.47715 182 10 182H207C212.523 182 217 177.523 217 172V10C217 4.47715 212.523 0 207 0Z" fill="#341717"/>
  <g opacity="0.311">
    <path d="M69.575 154.492L140.489 154.447C144.589 154.447 147.91 151.53 147.907 147.938L147.852 82.5039C147.852 78.9119 144.523 76.0039 140.423 76.0039L69.51 76.0449C65.41 76.0449 62.089 78.9619 62.092 82.5549L62.147 147.992C62.147 151.584 65.4761 154.492 69.5761 154.492" fill="#401F1F"/>
    <path d="M108.643 140.105C108.172 140.105 107.71 139.982 107.303 139.747C106.895 139.512 106.556 139.174 106.321 138.767C106.085 138.36 105.96 137.898 105.96 137.427C105.959 136.957 106.082 136.495 106.317 136.087L118.317 115.241C118.57 114.801 118.935 114.436 119.374 114.182C119.813 113.928 120.311 113.794 120.818 113.793C121.325 113.793 121.823 113.926 122.263 114.179C122.703 114.432 123.068 114.796 123.322 115.235L137.276 139.341C137.319 139.415 137.341 139.499 137.341 139.585C137.341 139.67 137.319 139.755 137.276 139.829C137.233 139.903 137.172 139.964 137.098 140.007C137.024 140.05 136.94 140.073 136.854 140.073L108.643 140.105Z" fill="#AD7474"/>
    <path opacity="0.745" d="M72.923 139.414L93.658 103.405C93.9111 102.966 94.2755 102.6 94.7145 102.346C95.1534 102.092 95.6516 101.958 96.1588 101.958C96.6659 101.957 97.1644 102.09 97.6039 102.343C98.0435 102.596 98.4087 102.96 98.663 103.399L119.903 140.092L73.346 140.145C73.2605 140.145 73.1764 140.122 73.1023 140.08C73.0282 140.037 72.9666 139.975 72.9238 139.901C72.8809 139.827 72.8583 139.743 72.8582 139.658C72.858 139.572 72.8804 139.488 72.923 139.414Z" fill="#DDAAA6"/>
    <path d="M112.674 96.326C112.676 97.9333 113.155 99.5039 114.049 100.839C114.944 102.175 116.214 103.215 117.7 103.828C119.186 104.441 120.82 104.6 122.396 104.285C123.972 103.969 125.419 103.194 126.554 102.056C127.69 100.918 128.462 99.4691 128.774 97.8923C129.085 96.3155 128.923 94.6816 128.306 93.1973C127.689 91.7131 126.646 90.445 125.309 89.5535C123.971 88.6621 122.399 88.1872 120.792 88.189C119.725 88.1902 118.668 88.4016 117.682 88.8111C116.697 89.2207 115.801 89.8204 115.048 90.576C114.294 91.3316 113.696 92.2283 113.289 93.2149C112.882 94.2015 112.673 95.2586 112.674 96.326Z" fill="#AD7474"/>
  </g>
  <path d="M69.575 107.492L140.489 107.447C144.589 107.447 147.91 104.53 147.907 100.938L147.852 35.5039C147.852 31.9119 144.523 29.0039 140.423 29.0039L69.51 29.0449C65.41 29.0449 62.089 31.9619 62.092 35.5549L62.147 100.992C62.147 104.584 65.4761 107.492 69.5761 107.492" fill="#3E1F1F"/>
  <path opacity="0.502" d="M108.643 93.1049C108.172 93.1053 107.71 92.9819 107.303 92.7471C106.895 92.5122 106.556 92.1743 106.321 91.7672C106.085 91.36 105.96 90.8979 105.96 90.4275C105.959 89.957 106.082 89.4947 106.317 89.0869L118.317 68.241C118.57 67.8015 118.935 67.4363 119.374 67.1823C119.813 66.9282 120.311 66.7941 120.818 66.7935C121.325 66.7929 121.823 66.9258 122.263 67.1788C122.703 67.4318 123.068 67.796 123.322 68.2349L137.276 92.3409C137.319 92.4151 137.341 92.4992 137.341 92.5848C137.341 92.6704 137.319 92.7545 137.276 92.8287C137.233 92.9028 137.172 92.9645 137.098 93.0073C137.024 93.0502 136.94 93.0728 136.854 93.0729L108.643 93.1049Z" fill="#AD7474"/>
  <path opacity="0.403" d="M72.923 92.414L93.658 56.405C93.9111 55.9655 94.2755 55.6004 94.7145 55.3463C95.1534 55.0922 95.6516 54.9581 96.1588 54.9575C96.6659 54.9569 97.1644 55.0898 97.6039 55.3428C98.0435 55.5959 98.4087 55.9601 98.663 56.399L119.903 93.092L73.346 93.145C73.2605 93.145 73.1764 93.1224 73.1023 93.0797C73.0282 93.0369 72.9666 92.9754 72.9238 92.9014C72.8809 92.8274 72.8583 92.7434 72.8582 92.6578C72.858 92.5723 72.8804 92.4882 72.923 92.414Z" fill="#DDAAA6"/>
  <path opacity="0.571" d="M112.674 49.326C112.676 50.9333 113.155 52.5039 114.049 53.8393C114.944 55.1746 116.214 56.2147 117.7 56.8281C119.186 57.4414 120.82 57.6004 122.396 57.2849C123.972 56.9695 125.419 56.1938 126.554 55.0559C127.69 53.918 128.462 52.4691 128.774 50.8923C129.085 49.3155 128.923 47.6816 128.306 46.1973C127.689 44.7131 126.646 43.445 125.309 42.5535C123.971 41.6621 122.399 41.1872 120.792 41.189C119.725 41.1902 118.668 41.4016 117.682 41.8111C116.697 42.2207 115.801 42.8204 115.048 43.576C114.294 44.3316 113.696 45.2283 113.289 46.2149C112.882 47.2015 112.673 48.2586 112.674 49.326Z" fill="#AD7474"/>
        <defs>
        <clipPath id="clip0_2324_276">
        <rect width="171" height="144" fill="white" transform="matrix(0 1 -1 0 144 0)"/>
        </clipPath>
        </defs>
</svg>