<svg id="Group_12651" data-name="Group 12651" xmlns="http://www.w3.org/2000/svg" width="31.021" height="30.746" viewBox="0 0 31.021 30.746">
  <defs>
    <style>
      .cls-1 {
        fill: #fff;
      }
    </style>
  </defs>
  <path id="Path_46" data-name="Path 46" class="cls-1" d="M47.106,30.674A1.578,1.578,0,0,0,48.492,28l-2.664-2.692L47.564,21.9a1.563,1.563,0,0,0-.056-1.535,1.6,1.6,0,0,0-2.066-.587L42,21.514,39.34,18.851a1.628,1.628,0,0,0-2.329.1,1.546,1.546,0,0,0-.341,1.28l.612,3.66-3.293,1.656a1.577,1.577,0,0,0,.459,2.967l3.775.625.583,3.769a1.578,1.578,0,0,0,2.967.472l1.712-3.34ZM42.07,29.36,40.38,32.7l-.011,0-.615-3.793a1.575,1.575,0,0,0-1.309-1.317l-3.76-.653,3.294-1.656a1.57,1.57,0,0,0,.846-1.678l-.58-3.656L40.9,22.61a1.579,1.579,0,0,0,1.832.29l3.446-1.7-1.736,3.408a1.575,1.575,0,0,0,.29,1.833l2.635,2.706-3.624-.63A1.572,1.572,0,0,0,42.07,29.36Z" transform="translate(-23.378 -14.511)"/>
  <path id="Path_47" data-name="Path 47" class="cls-1" d="M27.17,63.035l1.1-2.165a1.306,1.306,0,0,0-.047-1.285,1.343,1.343,0,0,0-1.728-.49l-2.165,1.1-1.689-1.689a1.354,1.354,0,0,0-1.949.086,1.313,1.313,0,0,0-.286,1.072l.4,2.3-2.084,1.049a1.32,1.32,0,0,0,.384,2.482l2.382.382.37,2.393a1.32,1.32,0,0,0,2.483.394l1.066-2.106,2.292.4a1.32,1.32,0,0,0,1.159-2.234ZM25.506,65a1.315,1.315,0,0,0-1.406.7l-.819,1.619-.287-1.853a1.314,1.314,0,0,0-1.1-1.1l-1.844-.3,1.6-.8a1.31,1.31,0,0,0,.708-1.4l-.3-1.752,1.294,1.294a1.339,1.339,0,0,0,1.533.243L26.57,60.8l-.857,1.683a1.315,1.315,0,0,0,.243,1.532L27.248,65.3Z" transform="translate(-14.119 -38.832)"/>
  <path id="Path_48" data-name="Path 48" class="cls-1" d="M71.288,67.222l.861-1.69A1.213,1.213,0,0,0,72.1,64.34a1.244,1.244,0,0,0-1.6-.453l-1.691.86L67.5,63.43a1.256,1.256,0,0,0-1.805.079,1.219,1.219,0,0,0-.266.993l.309,1.788-1.621.815a1.223,1.223,0,0,0,.356,2.3l1.858.3.289,1.869a1.223,1.223,0,0,0,2.3.365l.829-1.639,1.783.309a1.2,1.2,0,0,0,1.34-.739,1.218,1.218,0,0,0-.266-1.331Zm-1.516,1.507-.207-.018a1.218,1.218,0,0,0-1.092.671l-.48.948-.17-1.1a1.219,1.219,0,0,0-1.015-1.021l-1.093-.175.935-.471a1.217,1.217,0,0,0,.654-1.3l-.174-1.011.757.758a1.221,1.221,0,0,0,1.42.223l1.005-.512-.512,1a1.219,1.219,0,0,0,.225,1.421l.753.753Z" transform="translate(-41.942 -41.862)"/>
  <path id="Path_49" data-name="Path 49" class="cls-1" d="M35.635,12a.775.775,0,0,0,0-1.1L33.31,8.581a.775.775,0,0,0-1.1,1.1L34.539,12a.774.774,0,0,0,1.1,0Z" transform="translate(-22.685 -8.354)"/>
  <path id="Path_50" data-name="Path 50" class="cls-1" d="M60.071,63.328l-.775-.775a.775.775,0,0,0-1.1,1.1l.775.775a.775.775,0,0,0,1.1-1.1Z" transform="translate(-38.595 -41.397)"/>
  <path id="Path_51" data-name="Path 51" class="cls-1" d="M26.969,16.106a.775.775,0,0,0,.548-1.323l-6.2-6.2a.775.775,0,0,0-1.1,1.1l6.2,6.2A.774.774,0,0,0,26.969,16.106Z" transform="translate(-15.342 -8.354)"/>
  <path id="Path_52" data-name="Path 52" class="cls-1" d="M9.323,58.554a.775.775,0,1,0-1.1,1.1l2.325,2.325a.775.775,0,1,0,1.1-1.1Z" transform="translate(-7.999 -38.95)"/>
  <path id="Path_53" data-name="Path 53" class="cls-1" d="M8.227,46.561a.775.775,0,0,0,0,1.1L12.1,51.533a.775.775,0,0,0,1.1-1.1L9.323,46.561A.774.774,0,0,0,8.227,46.561Z" transform="translate(-8 -31.607)"/>
</svg>
