<svg xmlns="http://www.w3.org/2000/svg" width="15.023" height="12.396" viewBox="0 0 15.023 12.396">
  <defs>
    <style>
      .cls-1 {
        fill: #ed1c24;
        stroke: #ed1c24;
        stroke-width: 1.6px;
      }
    </style>
  </defs>
  <g id="Group_12789" data-name="Group 12789" transform="translate(-63.274 -35.582)">
    <path id="Path_73" data-name="Path 73" class="cls-1" d="M99.2,157.668c1.894,0,3.789,0,5.683,0,.721,0,1.176.5.923.992a.88.88,0,0,1-.766.458c-.078.007-.158.007-.237.007q-5.615,0-11.23,0a1.048,1.048,0,0,1-.977-.416c-.307-.49.133-1.037.854-1.042,1.2-.009,2.39,0,3.586,0H99.2" transform="translate(-28.396 -116.609)"/>
    <path id="Path_256" data-name="Path 256" class="cls-1" d="M99.2,157.668c1.894,0,3.789,0,5.683,0,.721,0,1.176.5.923.992a.88.88,0,0,1-.766.458c-.078.007-.158.007-.237.007q-5.615,0-11.23,0a1.048,1.048,0,0,1-.977-.416c-.307-.49.133-1.037.854-1.042,1.2-.009,2.39,0,3.586,0H99.2" transform="translate(-28.396 -111.951)"/>
    <path id="Path_74" data-name="Path 74" class="cls-1" d="M95.232,118.984c-.64,0-1.281.009-1.921,0a.733.733,0,0,1-.755-.941.709.709,0,0,1,.694-.525c1.325-.009,2.65-.012,3.974,0a.724.724,0,0,1,.724.739.739.739,0,0,1-.769.725c-.649.012-1.3,0-1.947,0" transform="translate(-28.424 -81.125)"/>
  </g>
</svg>
