<svg width="21" height="13" viewBox="0 0 21 13" fill="none" xmlns="http://www.w3.org/2000/svg">
<path d="M10.7528 0.31897C8.64466 0.327851 6.58075 0.924478 4.79302 2.04181C3.0053 3.15914 1.56459 4.75289 0.632812 6.64397C1.55742 8.54055 2.99639 10.1391 4.78563 11.2574C6.57487 12.3756 8.64236 12.9686 10.7523 12.9686C12.8623 12.9686 14.9298 12.3756 16.719 11.2574C18.5082 10.1391 19.9472 8.54055 20.8718 6.64397C19.9401 4.75304 18.4996 3.15939 16.712 2.04207C14.9245 0.924752 12.8608 0.328036 10.7528 0.31897ZM15.7428 3.67297C16.9337 4.43436 17.9423 5.44872 18.6968 6.64397C17.9423 7.83921 16.9337 8.85358 15.7428 9.61497C14.2525 10.5662 12.5213 11.0716 10.7533 11.0716C8.9853 11.0716 7.25414 10.5662 5.76381 9.61497C4.57292 8.85358 3.56435 7.83921 2.80981 6.64397C3.56404 5.44881 4.57226 4.43445 5.76281 3.67297C5.83981 3.62397 5.91881 3.57297 5.99681 3.52897C5.71894 4.29332 5.62941 5.11338 5.73579 5.91968C5.84217 6.72598 6.14134 7.49475 6.60795 8.16087C7.07456 8.82699 7.69486 9.37082 8.41629 9.74629C9.13772 10.1218 9.93902 10.3178 10.7523 10.3178C11.5656 10.3178 12.3669 10.1218 13.0883 9.74629C13.8098 9.37082 14.4301 8.82699 14.8967 8.16087C15.3633 7.49475 15.6625 6.72598 15.7688 5.91968C15.8752 5.11338 15.7857 4.29332 15.5078 3.52897C15.5865 3.57564 15.6655 3.62364 15.7428 3.67297ZM10.7528 4.74697C10.7528 5.12275 10.6414 5.4901 10.4326 5.80255C10.2238 6.11501 9.92709 6.35853 9.57991 6.50234C9.23273 6.64615 8.85071 6.68377 8.48214 6.61046C8.11358 6.53715 7.77503 6.35619 7.50931 6.09047C7.24359 5.82475 7.06263 5.48621 6.98932 5.11764C6.91601 4.74908 6.95364 4.36705 7.09744 4.01987C7.24125 3.67269 7.48478 3.37595 7.79723 3.16718C8.10968 2.9584 8.47703 2.84697 8.85281 2.84697C9.35672 2.84697 9.84 3.04715 10.1963 3.40347C10.5526 3.75979 10.7528 4.24306 10.7528 4.74697Z" fill="#F4F4F4"/>
</svg>
