<svg id="Group_12356" data-name="Group 12356" xmlns="http://www.w3.org/2000/svg" width="17.77" height="18.282" viewBox="0 0 17.77 18.282">
  <g id="Ellipse_4" data-name="Ellipse 4" transform="translate(0 9.297)" fill="none" stroke="#f4f4f4" stroke-width="1">
    <circle cx="4.493" cy="4.493" r="4.493" stroke="none"/>
    <circle cx="4.493" cy="4.493" r="3.993" fill="none"/>
  </g>
  <g id="dropper_4301170" transform="translate(3.899)">
    <path id="Path_35" data-name="Path 35" d="M1.462,14.87c.032,0,3.227-.669,3.227-.669a.462.462,0,0,0,.232-.126L10.487,8.51l.454.454a.462.462,0,0,0,.654,0L12.85,7.708a.462.462,0,0,0,0-.654L12.4,6.6l1.827-1.827A2.211,2.211,0,0,0,11.1,1.647L9.27,3.473,8.816,3.02a.462.462,0,0,0-.654,0L6.907,4.276a.462.462,0,0,0,0,.654l.454.454L1.794,10.949a.461.461,0,0,0-.126.232L1.01,14.313a.463.463,0,0,0,.452.558ZM11.75,2.3A1.287,1.287,0,0,1,13.57,4.12L11.743,5.947,9.924,4.127ZM8.489,4l3.38,3.381-.6.6L7.887,4.6ZM8.014,6.037,9.834,7.856,8.259,9.431H4.62ZM2.545,11.506l1.15-1.15H7.334L4.364,13.325l-2.3.485Z" transform="translate(-1 -1)" fill="#f4f4f4"/>
  </g>
</svg>
