<svg width="19" height="19" viewBox="0 0 19 19" fill="none" xmlns="http://www.w3.org/2000/svg">
<g id="Group 12359">
<path id="Path 46" d="M14.657 9.70101C14.852 9.73508 15.0527 9.70612 15.2302 9.61833C15.4076 9.53054 15.5524 9.38849 15.6436 9.2128C15.7348 9.03711 15.7676 8.83693 15.7373 8.64132C15.7069 8.44571 15.6151 8.26485 15.475 8.12501L13.903 6.53601L14.928 4.52501C15.001 4.38394 15.0363 4.2264 15.0305 4.06767C15.0247 3.90894 14.9781 3.75439 14.895 3.61901C14.7704 3.42093 14.577 3.27598 14.3519 3.21209C14.1268 3.1482 13.886 3.1699 13.676 3.27301L11.646 4.29501L10.074 2.72301C9.9804 2.63527 9.8702 2.56716 9.74988 2.52268C9.62956 2.47821 9.50155 2.45827 9.3734 2.46405C9.24525 2.46983 9.11956 2.5012 9.00373 2.55633C8.8879 2.61145 8.78428 2.6892 8.69898 2.78501C8.61187 2.88822 8.54875 3.00948 8.51417 3.14004C8.47958 3.2706 8.47439 3.4072 8.49898 3.54001L8.85998 5.70001L6.91598 6.67701C6.74009 6.76547 6.59677 6.90741 6.50663 7.08244C6.41648 7.25747 6.38413 7.45657 6.41424 7.65113C6.44436 7.84569 6.53537 8.0257 6.67422 8.16529C6.81306 8.30487 6.99258 8.39685 7.18698 8.42801L9.41498 8.79701L9.75898 11.021C9.78905 11.2159 9.88021 11.3962 10.0193 11.5359C10.1585 11.6756 10.3384 11.7676 10.5331 11.7985C10.7278 11.8294 10.9274 11.7977 11.1029 11.7079C11.2785 11.6182 11.421 11.475 11.51 11.299L12.52 9.32801L14.657 9.70101ZM11.684 8.92501L10.684 10.896L10.321 8.65701C10.2912 8.46226 10.2002 8.28204 10.0613 8.14237C9.92232 8.0027 9.74256 7.91082 9.54798 7.88001L7.32897 7.49401L9.27297 6.51701C9.45201 6.42807 9.59746 6.28359 9.68759 6.10514C9.77771 5.9267 9.80766 5.72388 9.77297 5.52701L9.42998 3.36901L11.001 4.94001C11.1401 5.07886 11.3196 5.17018 11.5137 5.20089C11.7079 5.2316 11.9068 5.20014 12.082 5.11101L14.116 4.11101L13.084 6.12101C12.9941 6.29621 12.9623 6.49542 12.993 6.68989C13.0238 6.88437 13.1155 7.06405 13.255 7.20301L14.81 8.80301L12.671 8.43101C12.4753 8.39684 12.2737 8.4264 12.0961 8.51532C11.9184 8.60425 11.7739 8.74785 11.684 8.92501Z" fill="#F4F4F4"/>
<path id="Path 47" d="M8.357 14.446L9.008 13.168C9.06924 13.0498 9.09885 12.9178 9.09394 12.7848C9.08904 12.6518 9.04978 12.5224 8.98 12.409C8.87561 12.2435 8.71369 12.1224 8.52539 12.069C8.33709 12.0157 8.13571 12.0338 7.96 12.12L6.682 12.77L5.682 11.77C5.60404 11.6961 5.51198 11.6387 5.41133 11.6011C5.31068 11.5635 5.2035 11.5466 5.09617 11.5514C4.98885 11.5561 4.88358 11.5825 4.78665 11.6288C4.68972 11.6751 4.60312 11.7405 4.532 11.821C4.45931 11.9078 4.40652 12.0094 4.37732 12.1188C4.34812 12.2281 4.34324 12.3426 4.363 12.454L4.597 13.809L3.367 14.428C3.21988 14.5021 3.10001 14.6209 3.02463 14.7673C2.94925 14.9138 2.92223 15.0803 2.94745 15.2431C2.97267 15.4059 3.04884 15.5565 3.165 15.6732C3.28117 15.79 3.43136 15.8669 3.594 15.893L5 16.119L5.219 17.531C5.24413 17.6941 5.32038 17.8449 5.43676 17.9618C5.55313 18.0788 5.70362 18.1557 5.86655 18.1817C6.02947 18.2076 6.19642 18.1811 6.34332 18.106C6.49023 18.031 6.60952 17.9112 6.684 17.764L7.313 16.521L8.666 16.756C8.82918 16.7845 8.99719 16.7602 9.14563 16.6867C9.29407 16.6132 9.41522 16.4943 9.49147 16.3472C9.56773 16.2002 9.59513 16.0327 9.56968 15.869C9.54424 15.7053 9.46729 15.554 9.35 15.437L8.357 14.446ZM7.375 15.607C7.21041 15.5775 7.04069 15.602 6.89113 15.6768C6.74157 15.7516 6.62017 15.8726 6.545 16.022L6.062 16.977L5.893 15.883C5.86807 15.7203 5.79206 15.5697 5.67593 15.4531C5.55981 15.3364 5.40959 15.2597 5.247 15.234L4.159 15.059L5.103 14.584C5.25287 14.5098 5.37462 14.389 5.44999 14.2397C5.52536 14.0904 5.55027 13.9207 5.521 13.756L5.341 12.719L6.105 13.483C6.22188 13.5969 6.37115 13.6718 6.5323 13.6974C6.69346 13.723 6.85859 13.698 7.005 13.626L7.998 13.12L7.492 14.113C7.41788 14.2589 7.39179 14.4246 7.41747 14.5862C7.44316 14.7479 7.5193 14.8972 7.635 15.013L8.398 15.776L7.375 15.607Z" fill="#F4F4F4"/>
<path id="Path 48" d="M17.973 15.128L18.481 14.128C18.537 14.0189 18.564 13.8972 18.5594 13.7746C18.5549 13.652 18.5189 13.5327 18.455 13.428C18.3585 13.2747 18.2086 13.1625 18.0344 13.113C17.8601 13.0636 17.6737 13.0803 17.511 13.16L16.511 13.668L15.734 12.891C15.6618 12.8225 15.5766 12.7693 15.4834 12.7345C15.3902 12.6998 15.2909 12.6841 15.1915 12.6885C15.0921 12.6929 14.9946 12.7172 14.9049 12.7601C14.8151 12.8029 14.7349 12.8634 14.669 12.938C14.6017 13.0183 14.5528 13.1124 14.5257 13.2136C14.4985 13.3148 14.4939 13.4208 14.512 13.524L14.694 14.579L13.737 15.06C13.6006 15.1286 13.4894 15.2386 13.4194 15.3744C13.3495 15.5101 13.3244 15.6645 13.3477 15.8154C13.3711 15.9663 13.4416 16.1059 13.5493 16.2142C13.657 16.3225 13.7962 16.3938 13.947 16.418L15.047 16.594L15.218 17.694C15.2414 17.8451 15.3121 17.9849 15.4201 18.0932C15.528 18.2015 15.6676 18.2728 15.8186 18.2967C15.9696 18.3206 16.1243 18.2959 16.2605 18.2262C16.3966 18.1566 16.5071 18.0455 16.576 17.909L17.066 16.941L18.118 17.124C18.2786 17.1528 18.4443 17.1253 18.5871 17.0463C18.7299 16.9673 18.8411 16.8414 18.902 16.69C18.9566 16.5583 18.9708 16.4134 18.9428 16.2736C18.9149 16.1338 18.846 16.0055 18.745 15.905L17.973 15.128ZM17.078 16.017L16.956 16.006C16.822 16.0061 16.6908 16.0435 16.577 16.1142C16.4632 16.1849 16.3714 16.2859 16.312 16.406L16.029 16.965L15.929 16.317C15.9056 16.1663 15.8348 16.0269 15.7269 15.919C15.6191 15.8112 15.4797 15.7404 15.329 15.717L14.684 15.617L15.236 15.339C15.3744 15.2698 15.4867 15.1578 15.5563 15.0195C15.6258 14.8813 15.6489 14.7244 15.622 14.572L15.522 13.972L15.969 14.419C16.0768 14.5267 16.216 14.5976 16.3665 14.6213C16.5171 14.645 16.6713 14.6204 16.807 14.551L17.4 14.251L17.1 14.844C17.0303 14.9796 17.0055 15.1339 17.0292 15.2845C17.053 15.4352 17.124 15.5744 17.232 15.682L17.676 16.126L17.078 16.017Z" fill="#F4F4F4"/>
<path id="Path 49" d="M8.297 2.31499C8.33954 2.27254 8.3733 2.22211 8.39633 2.1666C8.41935 2.11109 8.43121 2.05158 8.43121 1.99149C8.43121 1.93139 8.41935 1.87188 8.39633 1.81637C8.3733 1.76086 8.33954 1.71043 8.297 1.66798L6.924 0.295985C6.8382 0.210188 6.72184 0.161987 6.6005 0.161987C6.47917 0.161987 6.3628 0.210188 6.277 0.295985C6.1912 0.381783 6.14301 0.498149 6.14301 0.619485C6.14301 0.740821 6.1912 0.857188 6.277 0.942986L7.649 2.31499C7.69145 2.35753 7.74188 2.39128 7.79739 2.41431C7.8529 2.43734 7.9124 2.44919 7.9725 2.44919C8.0326 2.44919 8.09211 2.43734 8.14762 2.41431C8.20313 2.39128 8.25455 2.35753 8.297 2.31499Z" fill="#F4F4F4"/>
<path id="Path 50" d="M13.329 13.105L12.872 12.648C12.8295 12.6055 12.7791 12.5718 12.7236 12.5488C12.6681 12.5258 12.6086 12.514 12.5485 12.514C12.4884 12.514 12.4289 12.5258 12.3734 12.5488C12.3179 12.5718 12.2675 12.6055 12.225 12.648C12.1825 12.6905 12.1488 12.7409 12.1258 12.7964C12.1028 12.8519 12.091 12.9114 12.091 12.9715C12.091 13.0316 12.1028 13.091 12.1258 13.1466C12.1488 13.2021 12.1825 13.2525 12.225 13.295L12.682 13.752C12.7678 13.8378 12.8842 13.886 13.0055 13.886C13.1268 13.886 13.2432 13.8378 13.329 13.752C13.4148 13.6662 13.463 13.5498 13.463 13.4285C13.463 13.3071 13.4148 13.1908 13.329 13.105Z" fill="#F4F4F4"/>
<path id="Path 51" d="M7.51599 4.73699C7.60632 4.73665 7.69454 4.70961 7.76954 4.65926C7.84455 4.60891 7.90299 4.53751 7.93751 4.45403C7.97204 4.37055 7.9811 4.27872 7.96357 4.1901C7.94604 4.10149 7.90269 4.02003 7.83899 3.95599L4.17999 0.295985C4.1375 0.253503 4.08707 0.219804 4.03156 0.196813C3.97605 0.173821 3.91656 0.161987 3.85649 0.161987C3.79641 0.161987 3.73691 0.173821 3.68141 0.196813C3.6259 0.219804 3.57547 0.253503 3.53299 0.295985C3.4905 0.338468 3.4568 0.388902 3.43381 0.444408C3.41082 0.499915 3.39899 0.559405 3.39899 0.619485C3.39899 0.679564 3.41082 0.739056 3.43381 0.794562C3.4568 0.850069 3.4905 0.900503 3.53299 0.942986L7.19198 4.60198C7.23443 4.64473 7.2849 4.67866 7.34051 4.70183C7.39611 4.725 7.45575 4.73695 7.51599 4.73699Z" fill="#F4F4F4"/>
<path id="Path 52" d="M1.43499 11.732C1.39251 11.6895 1.34207 11.6558 1.28657 11.6328C1.23106 11.6098 1.17157 11.598 1.11149 11.598C1.05141 11.598 0.991919 11.6098 0.936412 11.6328C0.880906 11.6558 0.830473 11.6895 0.78799 11.732C0.745507 11.7744 0.711808 11.8249 0.688817 11.8804C0.665825 11.9359 0.653992 11.9954 0.653992 12.0555C0.653992 12.1155 0.665825 12.175 0.688817 12.2305C0.711808 12.286 0.745507 12.3365 0.78799 12.379L2.15999 13.751C2.24579 13.8368 2.36215 13.885 2.48349 13.885C2.60483 13.885 2.72119 13.8368 2.80699 13.751C2.89279 13.6652 2.94099 13.5488 2.94099 13.4275C2.94099 13.3061 2.89279 13.1898 2.80699 13.104L1.43499 11.732Z" fill="#F4F4F4"/>
<path id="Path 53" d="M0.787982 8.98699C0.74544 9.02944 0.711689 9.07986 0.68866 9.13537C0.665631 9.19088 0.653778 9.25039 0.653778 9.31049C0.653778 9.37059 0.665631 9.4301 0.68866 9.48561C0.711689 9.54112 0.74544 9.59154 0.787982 9.63399L3.07598 11.919C3.16178 12.0048 3.27815 12.053 3.39948 12.053C3.52082 12.053 3.63719 12.0048 3.72298 11.919C3.80878 11.8332 3.85698 11.7168 3.85698 11.5955C3.85698 11.4742 3.80878 11.3578 3.72298 11.272L1.43498 8.98699C1.39253 8.94445 1.34211 8.9107 1.2866 8.88767C1.23109 8.86464 1.17158 8.85278 1.11148 8.85278C1.05139 8.85278 0.991877 8.86464 0.936367 8.88767C0.880856 8.9107 0.830432 8.94445 0.787982 8.98699Z" fill="#F4F4F4"/>
</g>
</svg>
