<svg width="18" height="19" viewBox="0 0 18 19" fill="none" xmlns="http://www.w3.org/2000/svg">
<g id="Group 12448">
<g id="Ellipse 4">
<path id="Vector" d="M4.52303 17.851C6.7283 17.851 8.51603 16.0633 8.51603 13.858C8.51603 11.6527 6.7283 9.86499 4.52303 9.86499C2.31776 9.86499 0.530029 11.6527 0.530029 13.858C0.530029 16.0633 2.31776 17.851 4.52303 17.851Z" stroke="#F4F4F4"/>
</g>
<g id="dropper_4301170">
<path id="Path 35" d="M4.39102 13.938C4.42302 13.938 7.61802 13.269 7.61802 13.269C7.70596 13.2505 7.78659 13.2067 7.85002 13.143L13.416 7.57802L13.87 8.03202C13.9129 8.07501 13.9639 8.10912 14.02 8.1324C14.0761 8.15567 14.1363 8.16765 14.197 8.16765C14.2578 8.16765 14.3179 8.15567 14.374 8.1324C14.4301 8.10912 14.4811 8.07501 14.524 8.03202L15.779 6.77602C15.822 6.7331 15.8561 6.68213 15.8794 6.62602C15.9027 6.56991 15.9147 6.50976 15.9147 6.44902C15.9147 6.38827 15.9027 6.32812 15.8794 6.27201C15.8561 6.2159 15.822 6.16493 15.779 6.12202L15.329 5.66802L17.156 3.84102C17.5607 3.42433 17.7852 2.86513 17.7809 2.28428C17.7766 1.70343 17.5439 1.1476 17.1331 0.736937C16.7223 0.32627 16.1664 0.0937567 15.5856 0.0896548C15.0047 0.0855529 14.4456 0.310192 14.029 0.715016L12.199 2.54102L11.745 2.08802C11.7021 2.04502 11.6511 2.01091 11.595 1.98764C11.5389 1.96436 11.4788 1.95238 11.418 1.95238C11.3573 1.95238 11.2971 1.96436 11.241 1.98764C11.1849 2.01091 11.1339 2.04502 11.091 2.08802L9.83602 3.34402C9.79302 3.38693 9.75891 3.4379 9.73564 3.49401C9.71237 3.55012 9.70039 3.61027 9.70039 3.67102C9.70039 3.73176 9.71237 3.79191 9.73564 3.84802C9.75891 3.90413 9.79302 3.9551 9.83602 3.99802L10.29 4.45202L4.72302 10.017C4.6593 10.0804 4.6155 10.1611 4.59702 10.249L3.93902 13.381C3.92491 13.4483 3.92597 13.5179 3.94212 13.5848C3.95827 13.6516 3.98911 13.714 4.03239 13.7674C4.07568 13.8209 4.13032 13.864 4.19236 13.8937C4.25439 13.9234 4.32225 13.9388 4.39102 13.939V13.938ZM14.679 1.36802C14.9212 1.13068 15.2473 0.998512 15.5863 1.00022C15.9254 1.00194 16.2501 1.13739 16.4899 1.37716C16.7296 1.61693 16.8651 1.94163 16.8668 2.28071C16.8685 2.61979 16.7364 2.94584 16.499 3.18802L14.672 5.01502L12.853 3.19502L14.679 1.36802ZM11.418 3.06802L14.798 6.44902L14.198 7.04902L10.816 3.66802L11.418 3.06802ZM10.943 5.10502L12.763 6.92402L11.188 8.49902H7.54902L10.943 5.10502ZM5.47402 10.574L6.62402 9.42402H10.263L7.29302 12.393L4.99302 12.878L5.47402 10.574Z" fill="#F4F4F4"/>
</g>
</g>
</svg>
