<svg id="Group_12352" data-name="Group 12352" xmlns="http://www.w3.org/2000/svg" width="17.677" height="13.257" viewBox="0 0 17.677 13.257">
  <path id="Path_34" data-name="Path 34" d="M17.308,69.892H14.73V67.679a1.471,1.471,0,0,0-1.469-1.469H11.044a1.471,1.471,0,0,0-1.469,1.469v2.213H8.1V65.473A1.474,1.474,0,0,0,6.629,64H4.419a1.475,1.475,0,0,0-1.473,1.473v4.419H.368A.368.368,0,0,0,0,70.26V71a.368.368,0,0,0,.368.368H2.946v4.419a1.474,1.474,0,0,0,1.473,1.473h2.21A1.475,1.475,0,0,0,8.1,75.784V71.365H9.575v2.213a1.471,1.471,0,0,0,1.469,1.469h2.217a1.471,1.471,0,0,0,1.469-1.469V71.365h2.578A.368.368,0,0,0,17.677,71V70.26A.368.368,0,0,0,17.308,69.892Z" transform="translate(0 -64)" fill="#f4f4f4"/>
</svg>
