<svg width="61" height="44" viewBox="0 0 61 44" fill="none" xmlns="http://www.w3.org/2000/svg">
<g id="Group 12411">
<g id="Rectangle 213">
<path id="Vector" d="M56.0001 0.5H5.00006C2.51478 0.5 0.500061 2.51472 0.500061 5V39C0.500061 41.4853 2.51478 43.5 5.00006 43.5H56.0001C58.4853 43.5 60.5001 41.4853 60.5001 39V5C60.5001 2.51472 58.4853 0.5 56.0001 0.5Z" stroke="#F4F4F4"/>
</g>
<path id="Icon metro-eye" d="M30.753 16.319C28.6448 16.3279 26.5809 16.9245 24.7932 18.0418C23.0055 19.1591 21.5648 20.7529 20.633 22.644C21.5576 24.5405 22.9966 26.1391 24.7858 27.2574C26.5751 28.3756 28.6425 28.9686 30.7525 28.9686C32.8624 28.9686 34.9299 28.3756 36.7192 27.2574C38.5084 26.1391 39.9474 24.5405 40.872 22.644C39.9403 20.753 38.4997 19.1594 36.7122 18.0421C34.9247 16.9248 32.861 16.328 30.753 16.319ZM35.743 19.673C36.9339 20.4344 37.9425 21.4487 38.697 22.644C37.9425 23.8392 36.9339 24.8536 35.743 25.615C34.2527 26.5662 32.5215 27.0716 30.7535 27.0716C28.9855 27.0716 27.2543 26.5662 25.764 25.615C24.5731 24.8536 23.5645 23.8392 22.81 22.644C23.5642 21.4488 24.5724 20.4344 25.763 19.673C25.84 19.624 25.919 19.573 25.997 19.529C25.7191 20.2933 25.6296 21.1134 25.736 21.9197C25.8424 22.726 26.1415 23.4948 26.6081 24.1609C27.0747 24.827 27.695 25.3708 28.4165 25.7463C29.1379 26.1218 29.9392 26.3178 30.7525 26.3178C31.5658 26.3178 32.3671 26.1218 33.0885 25.7463C33.8099 25.3708 34.4302 24.827 34.8969 24.1609C35.3635 23.4948 35.6626 22.726 35.769 21.9197C35.8754 21.1134 35.7859 20.2933 35.508 19.529C35.5867 19.5756 35.6657 19.6236 35.743 19.673ZM30.753 20.747C30.753 21.1228 30.6416 21.4901 30.4328 21.8026C30.224 22.115 29.9273 22.3585 29.5801 22.5023C29.2329 22.6461 28.8509 22.6838 28.4823 22.6105C28.1138 22.5372 27.7752 22.3562 27.5095 22.0905C27.2438 21.8248 27.0628 21.4862 26.9895 21.1176C26.9162 20.7491 26.9538 20.3671 27.0976 20.0199C27.2414 19.6727 27.485 19.376 27.7974 19.1672C28.1099 18.9584 28.4772 18.847 28.853 18.847C29.3569 18.847 29.8402 19.0471 30.1965 19.4035C30.5528 19.7598 30.753 20.2431 30.753 20.747Z" fill="#F4F4F4"/>
</g>
</svg>
