<svg xmlns="http://www.w3.org/2000/svg" width="13.257" height="17.677" viewBox="0 0 13.257 17.677">
  <g id="Group_12352" data-name="Group 12352" transform="translate(0 17.677) rotate(-90)">
    <path id="Path_34" data-name="Path 34" d="M17.308,5.892H14.73V3.679A1.471,1.471,0,0,0,13.261,2.21H11.044A1.471,1.471,0,0,0,9.575,3.679V5.892H8.1V1.473A1.474,1.474,0,0,0,6.629,0H4.419A1.475,1.475,0,0,0,2.946,1.473V5.892H.368A.368.368,0,0,0,0,6.26V7a.368.368,0,0,0,.368.368H2.946v4.419a1.474,1.474,0,0,0,1.473,1.473h2.21A1.475,1.475,0,0,0,8.1,11.784V7.365H9.575V9.578a1.471,1.471,0,0,0,1.469,1.469h2.217A1.471,1.471,0,0,0,14.73,9.578V7.365h2.578A.368.368,0,0,0,17.677,7V6.26A.368.368,0,0,0,17.308,5.892Z" fill="#f4f4f4"/>
  </g>
</svg>
