<svg width="13" height="20" viewBox="0 0 13 20" fill="none" xmlns="http://www.w3.org/2000/svg">
<path id="Icon awesome-mouse-pointer" d="M11.632 12.617H7.85103L9.84303 17.469C9.90851 17.6276 9.90999 17.8053 9.84715 17.965C9.7843 18.1246 9.66203 18.2537 9.50603 18.325L7.75103 19.089C7.67372 19.1217 7.59066 19.1387 7.50671 19.1389C7.42276 19.1392 7.3396 19.1226 7.26212 19.0903C7.18464 19.058 7.11438 19.0106 7.05547 18.9508C6.99656 18.8909 6.95017 18.82 6.91903 18.742L5.02303 14.135L1.93103 17.315C1.84224 17.405 1.72846 17.4663 1.60444 17.4908C1.48043 17.5154 1.35189 17.5021 1.2355 17.4528C1.11911 17.4034 1.02023 17.3202 0.951676 17.214C0.883123 17.1078 0.848059 16.9834 0.851029 16.857V1.52802C0.847851 1.40154 0.882765 1.27703 0.951239 1.17065C1.01971 1.06426 1.11858 0.980921 1.23502 0.931436C1.35146 0.881951 1.48008 0.868609 1.60419 0.893143C1.72831 0.917676 1.84218 0.978952 1.93103 1.06902L12.078 11.506C12.1668 11.5967 12.2272 11.7113 12.252 11.8358C12.2767 11.9603 12.2647 12.0892 12.2175 12.207C12.1702 12.3248 12.0897 12.4263 11.9857 12.4991C11.8818 12.5719 11.7589 12.6128 11.632 12.617Z" fill="#F4F4F4"/>
</svg>
