<svg width="16" height="18" viewBox="0 0 16 18" fill="none" xmlns="http://www.w3.org/2000/svg">
<path id="Icon awesome-stack-overflow" d="M11.461 11.33L3.79101 9.711L3.47001 11.251L11.14 12.858L11.461 11.33ZM13.461 7.92L7.44401 2.892L6.44401 4.099L12.46 9.127L13.461 7.92ZM12.237 9.476L5.13101 6.157L4.47701 7.587L11.577 10.899L12.237 9.476ZM10.337 0.395996L9.08401 1.337L13.759 7.619L15.013 6.678L10.337 0.395996ZM11.137 13.251H3.30101V14.806H11.139L11.137 13.251ZM12.693 16.386H1.74101V11.686H0.174011V17.956H14.263V11.686H12.695L12.693 16.386Z" fill="#F4F4F4"/>
</svg>
