<svg width="22" height="23" viewBox="0 0 22 23" fill="none" xmlns="http://www.w3.org/2000/svg">
<path id="Icon ionic-md-hand" d="M20.447 12.35C20.2908 12.1756 20.1006 12.0349 19.888 11.9365C19.6755 11.8382 19.4451 11.7844 19.211 11.7783C18.9769 11.7722 18.7441 11.814 18.5267 11.9012C18.3093 11.9883 18.1121 12.1189 17.947 12.285L15.888 14.343C15.7996 14.4631 15.6858 14.5622 15.5548 14.6333C15.4238 14.7044 15.2787 14.7457 15.1299 14.7544C14.981 14.7631 14.8321 14.7389 14.6937 14.6835C14.5553 14.6282 14.4308 14.543 14.329 14.434C14.079 14.139 14.178 13.234 14.248 12.653L15.281 4.16403C15.3253 3.79962 15.223 3.43255 14.9967 3.14355C14.7703 2.85456 14.4384 2.66732 14.074 2.62303C13.7096 2.57874 13.3425 2.68102 13.0535 2.90738C12.7645 3.13373 12.5773 3.46562 12.533 3.83003L11.394 10.497C11.334 10.663 11.207 10.692 11.194 10.468L10.806 1.80203C10.806 1.43497 10.6602 1.08294 10.4006 0.823394C10.1411 0.563844 9.78907 0.41803 9.42201 0.41803C9.05495 0.41803 8.70292 0.563844 8.44337 0.823394C8.18382 1.08294 8.03801 1.43497 8.03801 1.80203L8.01101 10.533C8.01801 10.633 7.93201 10.663 7.91601 10.548L6.68201 3.73403C6.6497 3.55497 6.58244 3.38403 6.48408 3.23097C6.38571 3.0779 6.25815 2.94571 6.1087 2.84194C5.95924 2.73817 5.79081 2.66486 5.61302 2.62618C5.43523 2.5875 5.25156 2.58422 5.07251 2.61653C4.89345 2.64883 4.72251 2.71609 4.56944 2.81446C4.41638 2.91283 4.28419 3.04038 4.18042 3.18984C4.07665 3.33929 4.00333 3.50773 3.96466 3.68552C3.92598 3.86331 3.9227 4.04697 3.95501 4.22603L5.05501 12.201C5.05501 12.343 5.00901 12.424 4.94101 12.242L3.30501 7.87103C3.18571 7.52107 2.93344 7.23213 2.60278 7.0667C2.27211 6.90127 1.88961 6.87265 1.53801 6.98703C1.18994 7.11978 0.90736 7.38302 0.750318 7.72083C0.593275 8.05863 0.57415 8.44435 0.697007 8.79603L3.56401 18.163C3.57901 18.215 3.59501 18.263 3.61101 18.317L3.61701 18.336C4.01569 19.5602 4.79148 20.6268 5.8333 21.3832C6.87512 22.1396 8.12956 22.547 9.41701 22.547C11.1891 22.534 12.91 21.9509 14.325 20.884C15.806 19.992 20.553 14.89 20.553 14.89C20.7164 14.7181 20.8435 14.5151 20.9269 14.2931C21.0103 14.0711 21.0481 13.8345 21.0382 13.5976C21.0283 13.3606 20.9709 13.1281 20.8693 12.9137C20.7678 12.6994 20.6241 12.5077 20.447 12.35Z" fill="#F4F4F4"/>
</svg>
