<svg width="18" height="17" viewBox="0 0 18 17" fill="none" xmlns="http://www.w3.org/2000/svg">
<path id="Icon ionic-ios-color-filter" d="M16.508 8.53398C15.8911 7.72824 15.0414 7.13163 14.074 6.82498C14.112 6.57714 14.1304 6.3267 14.129 6.07598C14.1321 5.42656 14.0067 4.78295 13.7599 4.18224C13.5131 3.58154 13.1498 3.03563 12.691 2.57598C12.2369 2.1165 11.6962 1.7517 11.1001 1.50273C10.5041 1.25375 9.86449 1.12555 9.21851 1.12555C8.57252 1.12555 7.93296 1.25375 7.33689 1.50273C6.74081 1.7517 6.20007 2.1165 5.74601 2.57598C5.28723 3.03563 4.92396 3.58154 4.67716 4.18224C4.43035 4.78295 4.30489 5.42656 4.30801 6.07598C4.30861 6.32663 4.32699 6.57693 4.36301 6.82498C3.55405 7.0831 2.8249 7.54458 2.24539 8.16523C1.66588 8.78588 1.25541 9.54492 1.05329 10.3696C0.851176 11.1944 0.864174 12.0572 1.09105 12.8755C1.31792 13.6937 1.75106 14.4401 2.34901 15.043C3.25359 15.9571 4.48201 16.478 5.76799 16.4926C7.05397 16.5072 8.2939 16.0144 9.21901 15.121C10.1441 16.0144 11.384 16.5072 12.67 16.4926C13.956 16.478 15.1844 15.9571 16.089 15.043C16.9328 14.1912 17.44 13.0629 17.517 11.8664C17.594 10.6699 17.2357 9.48692 16.508 8.53398ZM9.21601 2.12998C10.2584 2.13527 11.2563 2.55357 11.9909 3.29321C12.7254 4.03286 13.1369 5.03354 13.135 6.07598C13.1357 6.26102 13.1227 6.44586 13.096 6.62898C12.935 6.61298 12.775 6.60498 12.61 6.60498C11.3411 6.60152 10.1211 7.09384 9.21001 7.97698C8.30065 7.09502 7.0828 6.60308 5.81601 6.60598C5.65501 6.60598 5.49101 6.61398 5.33001 6.62998C5.30517 6.44667 5.29214 6.26196 5.29101 6.07698C5.29125 5.03405 5.70416 4.03359 6.43956 3.29407C7.17496 2.55455 8.1731 2.13606 9.21601 2.12998ZM9.21601 10.023C9.14501 10.023 9.07101 10.023 9.00001 10.015C9.0625 9.86545 9.13465 9.72015 9.21601 9.57998C9.29736 9.72015 9.36951 9.86545 9.43201 10.015C9.36021 10.0216 9.2881 10.0242 9.21601 10.023ZM7.39201 15.165C6.89567 15.3843 6.35864 15.4964 5.81601 15.494C4.8807 15.4855 3.97871 15.1455 3.27055 14.5345C2.56239 13.9234 2.09397 13.081 1.94866 12.157C1.80334 11.233 1.99054 10.2874 2.47695 9.48849C2.96337 8.68956 3.71744 8.08911 4.60501 7.79398C4.86606 8.5003 5.28427 9.13803 5.82801 9.65898C6.37358 10.1833 7.03363 10.5736 7.75601 10.799C7.71805 11.0468 7.69966 11.2973 7.70101 11.548C7.699 12.5513 8.00245 13.5314 8.57101 14.358C8.22974 14.6957 7.83034 14.9691 7.39201 15.165ZM8.00701 9.83098C7.47118 9.65407 6.97961 9.36413 6.56555 8.98078C6.15149 8.59743 5.8246 8.12961 5.60701 7.60898C5.67801 7.60898 5.75201 7.60098 5.82301 7.60098C6.36425 7.59954 6.89977 7.71162 7.39501 7.92998C7.83443 8.12448 8.23439 8.39801 8.57501 8.73698C8.34113 9.07673 8.15033 9.44421 8.00701 9.83098ZM9.21601 13.512C8.87393 12.9129 8.69433 12.2348 8.69501 11.545C8.69432 11.3599 8.70736 11.1751 8.73401 10.992C8.89501 11.008 9.05501 11.016 9.22001 11.016C9.38501 11.016 9.54501 11.008 9.70601 10.992C9.73085 11.1753 9.74387 11.36 9.74501 11.545C9.73908 12.235 9.55699 12.9121 9.21601 13.512ZM11.042 7.92698C11.5371 7.70822 12.0727 7.59613 12.614 7.59798C12.685 7.59798 12.759 7.59798 12.83 7.60598C12.6124 8.12661 12.2855 8.59443 11.8715 8.97778C11.4574 9.36113 10.9658 9.65107 10.43 9.82798C10.287 9.44212 10.0976 9.07509 9.86601 8.73498C10.2062 8.39693 10.6055 8.12409 11.044 7.92998L11.042 7.92698ZM12.616 15.494C12.0748 15.4954 11.5392 15.3833 11.044 15.165C10.6046 14.9705 10.2046 14.6969 9.86401 14.358C10.4331 13.5316 10.7366 12.5513 10.734 11.548C10.7334 11.2973 10.715 11.047 10.679 10.799C11.401 10.5727 12.0608 10.1826 12.607 9.65898C13.149 9.13662 13.567 8.4993 13.83 7.79398C14.7179 8.08924 15.4721 8.69002 15.9585 9.48935C16.4449 10.2887 16.6318 11.2347 16.4859 12.1589C16.3401 13.0832 15.871 13.9257 15.1621 14.5364C14.4533 15.1471 13.5507 15.4865 12.615 15.494H12.616Z" fill="#F4F4F4" stroke="#F4F4F4" stroke-width="0.5"/>
</svg>
