<svg width="10" height="9" viewBox="0 0 10 9" fill="none" xmlns="http://www.w3.org/2000/svg">
<g id="Icon feather-zoom-in">
<path id="Path 29" d="M8.11599 4.00206C8.11599 4.65133 7.92347 5.28602 7.56277 5.82589C7.20208 6.36575 6.6894 6.78654 6.08957 7.03506C5.48974 7.28357 4.82969 7.34864 4.19288 7.22205C3.55606 7.09545 2.97109 6.78288 2.51191 6.32384C2.05274 5.8648 1.73998 5.27992 1.61319 4.64315C1.4864 4.00638 1.55128 3.34631 1.79961 2.7464C2.04794 2.14649 2.46857 1.63369 3.00832 1.27283C3.54808 0.911966 4.18272 0.719253 4.83199 0.719055C5.7027 0.719055 6.53774 1.06494 7.15342 1.68062C7.7691 2.29631 8.11499 3.13135 8.11499 4.00206H8.11599Z" stroke="#A59998" stroke-width="1.2" stroke-linecap="round" stroke-linejoin="round"/>
<path id="Path 30" d="M8.936 8.10604L7.151 6.32104" stroke="#A59998" stroke-width="1.2" stroke-linecap="round" stroke-linejoin="round"/>
<path id="Path 31" d="M4.83197 2.77106V5.23406" stroke="#A59998" stroke-width="1.2" stroke-linecap="round" stroke-linejoin="round"/>
<path id="Path 32" d="M3.60101 4.00208H6.06401" stroke="#A59998" stroke-width="1.2" stroke-linecap="round" stroke-linejoin="round"/>
</g>
</svg>
