<svg width="17" height="17" viewBox="0 0 17 17" fill="none" xmlns="http://www.w3.org/2000/svg">
<path id="Icon awesome-shapes" d="M16.188 10.368V15.245C16.1877 15.5035 16.0849 15.7514 15.9021 15.9341C15.7193 16.1169 15.4715 16.2197 15.213 16.22H10.335C10.0765 16.2197 9.82865 16.1169 9.64586 15.9341C9.46307 15.7514 9.36026 15.5035 9.36 15.245V10.368C9.36026 10.1095 9.46307 9.86166 9.64586 9.67887C9.82865 9.49608 10.0765 9.39328 10.335 9.39301H15.212C15.4707 9.39301 15.7188 9.4957 15.9018 9.67852C16.0848 9.86134 16.1877 10.1093 16.188 10.368ZM4.481 8.41401C3.70965 8.41401 2.95562 8.64274 2.31427 9.07128C1.67292 9.49982 1.17305 10.1089 0.877865 10.8215C0.582683 11.5342 0.50545 12.3183 0.655933 13.0749C0.806415 13.8314 1.17785 14.5263 1.72328 15.0717C2.2687 15.6172 2.96362 15.9886 3.72014 16.1391C4.47667 16.2896 5.26083 16.2123 5.97346 15.9171C6.68609 15.622 7.29519 15.1221 7.72373 14.4807C8.15226 13.8394 8.381 13.0854 8.381 12.314C8.381 11.2797 7.9701 10.2877 7.23871 9.55629C6.50732 8.8249 5.51534 8.41401 4.481 8.41401ZM15.181 7.43901C15.3542 7.44315 15.5253 7.40113 15.6769 7.31725C15.8285 7.23337 15.955 7.11066 16.0435 6.96172C16.1319 6.81278 16.1792 6.64298 16.1803 6.46975C16.1815 6.29652 16.1365 6.12611 16.05 5.97601L13.155 1.10201C13.0641 0.953044 12.9364 0.829945 12.7843 0.744531C12.6321 0.659118 12.4605 0.614258 12.286 0.614258C12.1115 0.614258 11.9399 0.659118 11.7877 0.744531C11.6356 0.829945 11.5079 0.953044 11.417 1.10201L8.517 5.97901C8.43051 6.12911 8.38553 6.29952 8.38667 6.47275C8.38782 6.64598 8.43505 6.81578 8.52352 6.96472C8.61199 7.11366 8.7385 7.23637 8.89008 7.32025C9.04165 7.40413 9.21281 7.44615 9.386 7.44201H15.181V7.43901Z" fill="#F4F4F4"/>
</svg>
