<svg id="Icon_ionic-ios-stats" data-name="Icon ionic-ios-stats" xmlns="http://www.w3.org/2000/svg" width="13.899" height="15.163" viewBox="0 0 13.899 15.163">
  <path id="Path_55" data-name="Path 55" d="M12.691,19.662h1.9a.317.317,0,0,0,.316-.316V4.816a.317.317,0,0,0-.316-.316h-1.9a.317.317,0,0,0-.316.316V19.347A.317.317,0,0,0,12.691,19.662Z" transform="translate(-8.584 -4.5)" fill="#f4f4f4"/>
  <path id="Path_56" data-name="Path 56" d="M5.941,26.568h1.9a.317.317,0,0,0,.316-.316V20.566a.317.317,0,0,0-.316-.316h-1.9a.317.317,0,0,0-.316.316v5.686A.317.317,0,0,0,5.941,26.568Z" transform="translate(-5.625 -11.405)" fill="#f4f4f4"/>
  <path id="Path_57" data-name="Path 57" d="M19.445,24.595h1.887a.319.319,0,0,0,.32-.32V16.07a.319.319,0,0,0-.32-.32H19.445a.318.318,0,0,0-.32.32v8.205A.319.319,0,0,0,19.445,24.595Z" transform="translate(-11.544 -9.432)" fill="#f4f4f4"/>
  <path id="Path_58" data-name="Path 58" d="M25.875,9.32v12a.319.319,0,0,0,.32.32h1.887a.319.319,0,0,0,.32-.32v-12a.319.319,0,0,0-.32-.32H26.195A.319.319,0,0,0,25.875,9.32Z" transform="translate(-14.503 -6.473)" fill="#f4f4f4"/>
</svg>
