<svg xmlns="http://www.w3.org/2000/svg" width="16.805" height="16.763" viewBox="0 0 16.805 16.763">
  <path id="Icon_material-slow-motion-video" data-name="Icon material-slow-motion-video" d="M12.341,9.595,9.772,7.666v7.581l2.569-1.929,2.485-1.862Zm0,0L9.772,7.666v7.581l2.569-1.929,2.485-1.862Zm0,0L9.772,7.666v7.581l2.569-1.929,2.485-1.862ZM10.614,4.777v-1.7A8.38,8.38,0,0,0,6.133,4.937l1.2,1.2A6.689,6.689,0,0,1,10.614,4.777ZM6.141,7.329l-1.2-1.2a8.38,8.38,0,0,0-1.862,4.481h1.7A6.689,6.689,0,0,1,6.141,7.329ZM4.777,12.3h-1.7A8.38,8.38,0,0,0,4.937,16.78l1.2-1.2A6.628,6.628,0,0,1,4.777,12.3Zm1.356,5.677a8.408,8.408,0,0,0,4.481,1.862v-1.7a6.689,6.689,0,0,1-3.285-1.365l-1.2,1.2Zm13.747-6.52a8.436,8.436,0,0,1-7.539,8.381v-1.7a6.738,6.738,0,0,0,0-13.36v-1.7A8.436,8.436,0,0,1,19.88,11.456Z" transform="translate(-3.075 -3.075)" fill="#f4f4f4"/>
</svg>
