<svg xmlns="http://www.w3.org/2000/svg" width="13.704" height="18.599" viewBox="0 0 13.704 18.599">
  <path id="Icon_material-keyboard-voice" data-name="Icon material-keyboard-voice" d="M14.352,16.246a2.924,2.924,0,0,0,2.927-2.937l.01-5.873a2.937,2.937,0,0,0-5.873,0V13.31A2.933,2.933,0,0,0,14.352,16.246ZM19.54,13.31A5.079,5.079,0,0,1,14.352,18.3,5.079,5.079,0,0,1,9.164,13.31H7.5a6.828,6.828,0,0,0,5.873,6.578V23.1h1.958V19.888A6.82,6.82,0,0,0,21.2,13.31Z" transform="translate(-7.5 -4.5)" fill="#f4f4f4"/>
</svg>
