<svg width="16" height="17" viewBox="0 0 16 17" fill="none" xmlns="http://www.w3.org/2000/svg">
<path id="Icon awesome-draw-polygon" d="M13.752 11.73C13.74 11.73 13.729 11.73 13.716 11.73L12.352 9.453C12.5401 9.12612 12.639 8.75561 12.639 8.3785C12.639 8.0014 12.5401 7.63089 12.352 7.304L13.72 5.024C13.732 5.024 13.743 5.024 13.756 5.024C14.1486 5.02588 14.5348 4.92427 14.8756 4.72939C15.2164 4.53452 15.4999 4.25327 15.6974 3.91397C15.8949 3.57468 15.9995 3.18932 16.0007 2.79672C16.0019 2.40412 15.8996 2.01815 15.7041 1.67767C15.5086 1.3372 15.2269 1.05426 14.8872 0.857346C14.5476 0.660433 14.162 0.556505 13.7694 0.556032C13.3768 0.555559 12.991 0.658556 12.6509 0.854649C12.3108 1.05074 12.0283 1.33301 11.832 1.673H4.51003C4.33866 1.37788 4.10174 1.12608 3.81758 0.937068C3.53343 0.748054 3.20963 0.626876 2.8712 0.582892C2.53277 0.538908 2.18875 0.573294 1.86572 0.683396C1.54269 0.793497 1.24928 0.976368 1.00816 1.21789C0.767039 1.45941 0.584651 1.75311 0.47508 2.07632C0.36551 2.39953 0.331689 2.7436 0.376229 3.08196C0.420769 3.42032 0.542479 3.74392 0.731959 4.02777C0.92144 4.31161 1.17362 4.54811 1.46903 4.719V12.04C1.17274 12.2105 0.919678 12.447 0.729456 12.731C0.539233 13.015 0.416957 13.3391 0.3721 13.678C0.327243 14.0169 0.361009 14.3616 0.470782 14.6853C0.580555 15.0091 0.763389 15.3032 1.00512 15.5449C1.24685 15.7866 1.54098 15.9695 1.86473 16.0793C2.18849 16.189 2.53316 16.2228 2.87206 16.1779C3.21096 16.1331 3.53499 16.0108 3.81903 15.8206C4.10308 15.6304 4.33952 15.3773 4.51003 15.081H11.831C12.0278 15.4194 12.3102 15.7 12.6498 15.8947C12.9894 16.0893 13.3742 16.1912 13.7657 16.19C14.1571 16.1888 14.5413 16.0845 14.8797 15.8878C15.2181 15.691 15.4988 15.4087 15.6934 15.0691C15.8881 14.7295 15.99 14.3446 15.9888 13.9532C15.9876 13.5617 15.8834 13.1775 15.6866 12.8391C15.4899 12.5007 15.2075 12.2201 14.8679 12.0254C14.5283 11.8307 14.1435 11.7288 13.752 11.73ZM3.70003 12.04V4.719C4.03576 4.52477 4.31497 4.24625 4.51003 3.911H11.782L10.439 6.149C10.427 6.149 10.416 6.149 10.403 6.149C9.81885 6.16137 9.26277 6.40211 8.854 6.81963C8.44522 7.23714 8.2163 7.7982 8.2163 8.3825C8.2163 8.96681 8.44522 9.52787 8.854 9.94538C9.26277 10.3629 9.81885 10.6036 10.403 10.616C10.415 10.616 10.426 10.616 10.439 10.616L11.781 12.853H4.51003C4.31577 12.5184 4.03762 12.2403 3.70303 12.046L3.70003 12.04ZM9.84303 8.379C9.84303 8.26864 9.87576 8.16076 9.93707 8.069C9.99839 7.97723 10.0855 7.90571 10.1875 7.86348C10.2895 7.82125 10.4017 7.8102 10.5099 7.83173C10.6181 7.85326 10.7176 7.9064 10.7956 7.98444C10.8736 8.06248 10.9268 8.1619 10.9483 8.27014C10.9698 8.37839 10.9588 8.49058 10.9166 8.59254C10.8743 8.6945 10.8028 8.78165 10.711 8.84297C10.6193 8.90428 10.5114 8.93701 10.401 8.93701C10.2535 8.93621 10.1122 8.87711 10.008 8.77258C9.90389 8.66804 9.84529 8.52657 9.84503 8.379H9.84303ZM14.31 2.79501C14.31 2.90537 14.2773 3.01325 14.216 3.10501C14.1547 3.19678 14.0675 3.2683 13.9656 3.31053C13.8636 3.35276 13.7514 3.36381 13.6432 3.34228C13.5349 3.32075 13.4355 3.26761 13.3575 3.18957C13.2794 3.11153 13.2263 3.01211 13.2048 2.90387C13.1832 2.79562 13.1943 2.68343 13.2365 2.58147C13.2787 2.47951 13.3503 2.39236 13.442 2.33104C13.5338 2.26973 13.6417 2.237 13.752 2.237C13.8255 2.23674 13.8983 2.25097 13.9663 2.27889C14.0343 2.3068 14.0961 2.34784 14.1482 2.39967C14.2004 2.4515 14.2417 2.51309 14.27 2.58093C14.2983 2.64877 14.3129 2.72151 14.313 2.79501H14.31ZM2.58603 2.236C2.69639 2.236 2.80428 2.26873 2.89604 2.33004C2.9878 2.39136 3.05932 2.47851 3.10156 2.58047C3.14379 2.68243 3.15484 2.79462 3.13331 2.90287C3.11178 3.01111 3.05864 3.11053 2.9806 3.18857C2.90256 3.26661 2.80313 3.31975 2.69489 3.34128C2.58665 3.36281 2.47446 3.35176 2.3725 3.30953C2.27053 3.2673 2.18339 3.19578 2.12207 3.10401C2.06076 3.01225 2.02803 2.90437 2.02803 2.794C2.0283 2.6461 2.08717 2.50432 2.19176 2.39973C2.29635 2.29514 2.43812 2.23627 2.58603 2.236ZM2.02703 13.963C2.02703 13.8526 2.05976 13.7448 2.12107 13.653C2.18239 13.5612 2.26953 13.4897 2.3715 13.4475C2.47346 13.4052 2.58565 13.3942 2.69389 13.4157C2.80213 13.4373 2.90156 13.4904 2.9796 13.5684C3.05764 13.6465 3.11078 13.7459 3.13231 13.8541C3.15384 13.9624 3.14279 14.0746 3.10056 14.1765C3.05832 14.2785 2.9868 14.3657 2.89504 14.427C2.80328 14.4883 2.69539 14.521 2.58503 14.521C2.43712 14.5207 2.29535 14.4619 2.19076 14.3573C2.08617 14.2527 2.0273 14.1109 2.02703 13.963ZM13.754 14.521C13.6437 14.521 13.5358 14.4883 13.444 14.427C13.3523 14.3657 13.2807 14.2785 13.2385 14.1765C13.1963 14.0746 13.1852 13.9624 13.2068 13.8541C13.2283 13.7459 13.2814 13.6465 13.3595 13.5684C13.4375 13.4904 13.5369 13.4373 13.6452 13.4157C13.7534 13.3942 13.8656 13.4052 13.9676 13.4475C14.0695 13.4897 14.1567 13.5612 14.218 13.653C14.2793 13.7448 14.312 13.8526 14.312 13.963C14.312 14.0365 14.2975 14.1093 14.2694 14.1772C14.2412 14.245 14.2 14.3067 14.148 14.3586C14.0959 14.4106 14.0342 14.4517 13.9663 14.4797C13.8983 14.5078 13.8255 14.5221 13.752 14.522L13.754 14.521Z" fill="#F4F4F4"/>
</svg>
