<svg width="6" height="4" viewBox="0 0 6 4" fill="none" xmlns="http://www.w3.org/2000/svg">
<path id="Icon ionic-ios-arrow-down" d="M3.31996 2.35003L5.15496 0.514027C5.18704 0.481675 5.2252 0.455997 5.26725 0.438473C5.3093 0.420949 5.35441 0.411926 5.39996 0.411926C5.44552 0.411926 5.49062 0.420949 5.53268 0.438473C5.57473 0.455997 5.61289 0.481675 5.64496 0.514027C5.70939 0.579496 5.7455 0.667671 5.7455 0.759527C5.7455 0.851383 5.70939 0.939557 5.64496 1.00503L3.56596 3.08603C3.50289 3.14889 3.418 3.185 3.32897 3.18687C3.23994 3.18873 3.15362 3.15619 3.08796 3.09603L0.994964 1.00703C0.933118 0.941391 0.899254 0.854255 0.900548 0.764081C0.901843 0.673907 0.938193 0.587779 1.0019 0.523945C1.0656 0.460111 1.15165 0.423586 1.24183 0.422108C1.332 0.42063 1.4192 0.454315 1.48496 0.516027L3.31996 2.35003Z" fill="#A59898"/>
</svg>
