<svg version="1.1" id="Layer_1" xmlns="http://www.w3.org/2000/svg" xmlns:xlink="http://www.w3.org/1999/xlink" x="0px" y="0px" viewBox="0 0 1000 1000" style="enable-background:new 0 0 1000 1000;" xml:space="preserve">
<style type="text/css">
	.st0{fill:#EA213C;}
</style>
<g>
	<path class="st0" d="M570.3,344.7H431.8c-24.6,0-44.8,20.4-44.8,45.3v0c0,24.9,20.2,45.3,44.8,45.3h138.6   c24.6,0,44.8-20.4,44.8-45.3v0C615.1,365.1,595,344.7,570.3,344.7z"/>
	<path class="st0" d="M481.1,471.4h-50.6c-22.7,0-41.3,18.8-41.3,41.7c0,23,18.6,41.7,41.3,41.7h50.6c22.7,0,41.3-18.8,41.3-41.7   C522.3,490.2,503.8,471.4,481.1,471.4z"/>
	<path class="st0" d="M871.1,439.5c0-246.3-179.5-378.3-369.4-378.3c-193,0-372.5,131-372.5,378.3c0,147.8,62.6,254.3,154.4,316.2   l-1.2,28.3l-6.5,154l135.3-71.3l90.9-47.9C720.1,817.1,871.1,661.5,871.1,439.5z M500.6,675.3c-116.2,0-214.8-75.4-214.8-235.8   c0-155.1,101.7-233.7,215.8-233.7c113.1,0,214.8,77.5,214.8,233.7C716.5,599.9,613.7,675.3,500.6,675.3z"/>
</g>
</svg>