<svg width="17" height="17" viewBox="0 0 17 17" fill="none" xmlns="http://www.w3.org/2000/svg">
<path d="M0.402033 0.0130007H1.95403C2.00719 0.0129449 2.05981 0.0236747 2.1087 0.0445408C2.1576 0.0654069 2.20175 0.0959755 2.23849 0.134397C2.27523 0.172819 2.30379 0.218294 2.32245 0.268073C2.3411 0.317851 2.34947 0.370897 2.34703 0.424001L2.21603 3.133C3.26245 1.90177 4.65253 1.01087 6.20829 0.574373C7.76404 0.137872 9.41468 0.175635 10.9488 0.682827C12.483 1.19002 13.8309 2.14356 14.8199 3.42135C15.8089 4.69915 16.3941 6.24305 16.5004 7.85538C16.6068 9.4677 16.2295 11.0751 15.4168 12.4717C14.6042 13.8683 13.3933 14.9906 11.939 15.695C10.4847 16.3993 8.85337 16.6535 7.25376 16.4251C5.65415 16.1967 4.1591 15.4961 2.96003 14.413C2.92031 14.3774 2.88826 14.334 2.86583 14.2856C2.8434 14.2372 2.83106 14.1848 2.82956 14.1314C2.82807 14.0781 2.83744 14.025 2.85712 13.9754C2.8768 13.9259 2.90637 13.8808 2.94403 13.843L4.05703 12.734C4.12748 12.6637 4.222 12.6227 4.32149 12.6194C4.42097 12.616 4.51802 12.6506 4.59303 12.716C5.47238 13.4898 6.56671 13.9772 7.73012 14.1131C8.89353 14.2491 10.0707 14.0272 11.1048 13.477C12.1389 12.9268 12.9807 12.0745 13.518 11.0336C14.0553 9.99282 14.2625 8.81294 14.1121 7.65131C13.9617 6.48968 13.4608 5.40149 12.6761 4.53183C11.8915 3.66216 10.8604 3.05234 9.72027 2.78366C8.58017 2.51498 7.38527 2.60021 6.29485 3.02799C5.20443 3.45577 4.27031 4.20577 3.61703 5.178L6.94003 5.019C6.99289 5.01712 7.04559 5.02592 7.09496 5.04489C7.14434 5.06386 7.18938 5.0926 7.22738 5.12938C7.26539 5.16617 7.29557 5.21026 7.31613 5.25899C7.33669 5.30772 7.3472 5.36011 7.34703 5.413V6.963C7.34703 7.06723 7.30563 7.16719 7.23193 7.24089C7.15822 7.3146 7.05826 7.356 6.95403 7.356H0.402033C0.297803 7.356 0.197842 7.3146 0.12414 7.24089C0.0504385 7.16719 0.0090332 7.06723 0.0090332 6.963V0.406001C0.0090332 0.301771 0.0504385 0.20181 0.12414 0.128108C0.197842 0.0544059 0.297803 0.0130007 0.402033 0.0130007Z" fill="white"/>
</svg>
