<svg width="17" height="17" viewBox="0 0 17 17" fill="none" xmlns="http://www.w3.org/2000/svg">
<path d="M16.402 0.0130056H14.851C14.7978 0.0129498 14.7452 0.0236796 14.6963 0.0445457C14.6474 0.0654118 14.6033 0.0959804 14.5665 0.134402C14.5298 0.172823 14.5012 0.218299 14.4826 0.268077C14.4639 0.317856 14.4555 0.370902 14.458 0.424006L14.589 3.13301C13.5426 1.90178 12.1525 1.01088 10.5967 0.574377C9.04096 0.137877 7.39032 0.17564 5.85616 0.682831C4.32199 1.19002 2.97411 2.14356 1.98509 3.42136C0.996075 4.69915 0.410935 6.24305 0.30459 7.85538C0.198245 9.46771 0.575535 11.0751 1.38815 12.4717C2.20077 13.8683 3.41173 14.9907 4.866 15.695C6.32026 16.3993 7.95163 16.6535 9.55124 16.4251C11.1509 16.1967 12.6459 15.4961 13.845 14.413C13.8847 14.3774 13.9167 14.3341 13.9392 14.2856C13.9616 14.2372 13.9739 14.1848 13.9754 14.1314C13.9769 14.0781 13.9676 14.025 13.9479 13.9754C13.9282 13.9259 13.8986 13.8808 13.861 13.843L12.748 12.73C12.6775 12.6597 12.583 12.6187 12.4835 12.6154C12.384 12.612 12.287 12.6466 12.212 12.712C11.3326 13.4858 10.2383 13.9732 9.07488 14.1091C7.91147 14.2451 6.73426 14.0232 5.70019 13.473C4.66612 12.9228 3.82432 12.0705 3.28703 11.0297C2.74974 9.98882 2.54248 8.80895 2.69288 7.64732C2.84329 6.48568 3.34421 5.3975 4.12887 4.52783C4.91352 3.65817 5.94464 3.04834 7.08473 2.77966C8.22483 2.51099 9.41974 2.59622 10.5102 3.024C11.6006 3.45177 12.5347 4.20177 13.188 5.17401L9.86497 5.01501C9.81186 5.01257 9.75882 5.02094 9.70904 5.03959C9.65926 5.05825 9.61379 5.08681 9.57537 5.12355C9.53694 5.16029 9.50637 5.20444 9.48551 5.25333C9.46464 5.30223 9.45391 5.35485 9.45397 5.40801V6.96301C9.45397 7.06724 9.49537 7.1672 9.56908 7.2409C9.64278 7.3146 9.74274 7.35601 9.84697 7.35601H16.404C16.5082 7.35601 16.6082 7.3146 16.6819 7.2409C16.7556 7.1672 16.797 7.06724 16.797 6.96301V0.406006C16.797 0.354227 16.7867 0.302959 16.7669 0.255148C16.747 0.207336 16.7179 0.163923 16.6812 0.127403C16.6445 0.0908834 16.6009 0.061977 16.553 0.0423449C16.5051 0.0227128 16.4537 0.0127421 16.402 0.0130056Z" fill="white"/>
</svg>
