<svg xmlns="http://www.w3.org/2000/svg" width="31" height="31" viewBox="0 0 31 31">
  <defs>
    <style>
      .cls-1 {
        fill: #fff;
      }

      .cls-2 {
        fill: none;
      }
    </style>
  </defs>
  <g id="Group_12649" data-name="Group 12649" transform="translate(-6873 -6845)">
    <path id="Path_227" data-name="Path 227" class="cls-1" d="M2888.881,638.1l3.029-7.427a.507.507,0,0,0-.837-.542l-6.184,6.475-3.217,3.368a.507.507,0,0,0,.138.8l4.8,2.423a.508.508,0,0,1,.242.645l-3.03,7.427a.507.507,0,0,0,.836.542l6.186-6.476,3.216-3.368a.507.507,0,0,0-.139-.8l-4.8-2.423a.507.507,0,0,1-.241-.645" transform="translate(4000.745 6219.802)"/>
    <path id="Path_228" data-name="Path 228" class="cls-1" d="M2666.244,581.048l4.444,1.19a.19.19,0,0,0,.233-.134l.078-.289a.191.191,0,0,0-.135-.233l-4.44-1.19a.191.191,0,0,0-.232.132c-.028.1-.055.193-.081.29a.191.191,0,0,0,.134.234m4.366,4.84-4.439,1.19a.191.191,0,0,0-.136.229c.024.1.048.195.074.292a.191.191,0,0,0,.233.136l4.444-1.191a.19.19,0,0,0,.134-.233l-.077-.289a.19.19,0,0,0-.233-.135m-1.106-10.679,3.251,3.252a.191.191,0,0,0,.27,0l.211-.211a.191.191,0,0,0,0-.269l-3.249-3.249a.191.191,0,0,0-.267,0c-.072.07-.145.14-.216.212h0a.188.188,0,0,0,0,.268m6.168-3.737c-.1.024-.195.048-.292.074a.191.191,0,0,0-.136.234l1.191,4.443a.19.19,0,0,0,.233.134l.289-.077a.19.19,0,0,0,.135-.233l-1.189-4.44a.191.191,0,0,0-.229-.136m12.1,3.469-3.252,3.252a.19.19,0,0,0,0,.269l.211.211a.19.19,0,0,0,.269,0l3.249-3.249a.191.191,0,0,0,0-.267c-.07-.073-.14-.145-.212-.217a.19.19,0,0,0-.268,0m-15.227,14.8-3.249,3.249a.19.19,0,0,0,0,.267q.1.109.212.217h0a.189.189,0,0,0,.268,0l3.252-3.252a.19.19,0,0,0,0-.269l-.212-.211a.19.19,0,0,0-.269,0m9.326,7.2c.1-.024.2-.048.292-.074a.191.191,0,0,0,.136-.233l-1.191-4.443a.19.19,0,0,0-.233-.135l-.289.077a.191.191,0,0,0-.134.233l1.189,4.44a.191.191,0,0,0,.229.136m5.062-14.415,4.44-1.19a.191.191,0,0,0,.136-.229q-.036-.146-.075-.292a.191.191,0,0,0-.233-.136l-4.444,1.191a.19.19,0,0,0-.134.233l.077.289a.19.19,0,0,0,.233.135m.624,11.156a.191.191,0,0,0,.267,0q.109-.1.217-.212h0a.189.189,0,0,0,0-.268l-3.252-3.252a.19.19,0,0,0-.269,0l-.211.211a.19.19,0,0,0,0,.269Zm-.877-6.851,4.44,1.19a.191.191,0,0,0,.232-.131c.028-.1.056-.193.081-.29a.191.191,0,0,0-.134-.234l-4.444-1.191a.189.189,0,0,0-.232.135l-.078.289a.19.19,0,0,0,.134.233" transform="translate(4209.841 6276.563)"/>
    <rect id="Rectangle_741" data-name="Rectangle 741" class="cls-2" width="31" height="31" transform="translate(6873 6845)"/>
  </g>
</svg>
